solid model
facet normal -1.0 0.0 6.579236420405202e-12
  outer loop
    vertex 443.2362080056203 439.4398839177447 -13.947869110832912
    vertex 443.23620800562696 430.9398839177783 -12.947869110832869
    vertex 443.23620800562696 439.4398839177447 -12.947869110832869
  endloop
endfacet
facet normal -1.0 0.0 6.579236420405202e-12
  outer loop
    vertex 443.23620800562696 430.9398839177783 -12.947869110832869
    vertex 443.2362080056203 439.4398839177447 -13.947869110832912
    vertex 443.2362080056203 430.9398839177783 -13.947869110832912
  endloop
endfacet
facet normal 0.0 -1.0 0.0
  outer loop
    vertex 443.2362080056203 439.4398839177447 -13.947869110832912
    vertex 441.1291564356678 439.4398839177447 -12.947869110819076
    vertex 441.1291564356612 439.4398839177447 -13.94786911081912
  endloop
endfacet
facet normal 0.0 -1.0 0.0
  outer loop
    vertex 441.1291564356678 439.4398839177447 -12.947869110819076
    vertex 443.2362080056203 439.4398839177447 -13.947869110832912
    vertex 443.23620800562696 439.4398839177447 -12.947869110832869
  endloop
endfacet
facet normal 1.0 7.283059798608424e-31 -5.6654045429315864e-14
  outer loop
    vertex 454.95331776082793 424.194819911753 -13.94786925928177
    vertex 454.9533177611224 446.19481991175377 32.0521308890833
    vertex 454.9533177611224 424.19481991175377 32.0521308890833
  endloop
endfacet
facet normal 1.0 7.283059798608424e-31 -5.6654045429315864e-14
  outer loop
    vertex 454.9533177611224 446.19481991175377 32.0521308890833
    vertex 454.95331776082793 424.194819911753 -13.94786925928177
    vertex 454.95331776082793 446.1948199117529 -13.94786925928177
  endloop
endfacet
facet normal 1.0 7.283059798608424e-31 -5.6654045429315864e-14
  outer loop
    vertex 454.95331776082793 446.1948199117529 -13.94786925928177
    vertex 454.95331776082793 424.194819911753 -13.94786925928177
    vertex 454.95331776082793 435.19481991175303 -13.94786925928177
  endloop
endfacet
facet normal 1.0 7.283059798608424e-31 -5.6654045429315864e-14
  outer loop
    vertex 454.95331776082793 446.1948199117529 -13.94786925928177
    vertex 454.95331776082793 435.19481991175303 -13.94786925928177
    vertex 454.95331776082793 439.0774840362726 -13.94786925928177
  endloop
endfacet
facet normal -4.947457754664326e-24 1.0 -7.557509051958365e-13
  outer loop
    vertex 436.95645476112236 446.19481991175377 32.05213088920098
    vertex 454.95331776082793 446.1948199117529 -13.94786925928177
    vertex 436.95645476082797 446.1948199117529 -13.947869259163912
  endloop
endfacet
facet normal -4.947457754664326e-24 1.0 -7.557509051958365e-13
  outer loop
    vertex 454.95331776082793 446.1948199117529 -13.94786925928177
    vertex 436.95645476112236 446.19481991175377 32.05213088920098
    vertex 454.9533177611224 446.19481991175377 32.0521308890833
  endloop
endfacet
facet normal 5.300964441861627e-24 -1.0 8.008703622207824e-13
  outer loop
    vertex 452.5926040487265 424.194819911753 -13.947869259275663
    vertex 436.95645476112236 424.19481991175377 32.05213088920098
    vertex 436.95645476082797 424.194819911753 -13.947869259163912
  endloop
endfacet
facet normal 5.300964441861627e-24 -1.0 8.008703622207824e-13
  outer loop
    vertex 436.95645476112236 424.19481991175377 32.05213088920098
    vertex 452.5926040487265 424.194819911753 -13.947869259275663
    vertex 454.9533177611224 424.19481991175377 32.0521308890833
  endloop
endfacet
facet normal 5.300964441861627e-24 -1.0 8.008703622207824e-13
  outer loop
    vertex 454.9533177611224 424.19481991175377 32.0521308890833
    vertex 452.5926040487265 424.194819911753 -13.947869259275663
    vertex 454.1909480487265 424.194819911753 -13.94786925927685
  endloop
endfacet
facet normal 5.300964441861627e-24 -1.0 8.008703622207824e-13
  outer loop
    vertex 454.9533177611224 424.19481991175377 32.0521308890833
    vertex 454.1909480487265 424.194819911753 -13.94786925927685
    vertex 454.95331776082793 424.194819911753 -13.94786925928177
  endloop
endfacet
facet normal -1.0 -6.34699213232051e-27 6.398513323343074e-12
  outer loop
    vertex 436.95645476082797 446.1948199117529 -13.947869259163912
    vertex 436.95645476112236 437.1632486648824 32.05213088919232
    vertex 436.95645476112236 446.19481991175377 32.05213088920098
  endloop
endfacet
facet normal -1.0 -6.34699213232051e-27 6.398513323343074e-12
  outer loop
    vertex 436.95645476112236 437.1632486648824 32.05213088919232
    vertex 436.95645476082797 446.1948199117529 -13.947869259163912
    vertex 436.95645476112685 437.1632486648824 30.052130889192323
  endloop
endfacet
facet normal -1.0 -6.34699213232051e-27 6.398513323343074e-12
  outer loop
    vertex 436.95645476112685 437.1632486648824 30.052130889192323
    vertex 436.95645476082797 446.1948199117529 -13.947869259163912
    vertex 436.95645476112685 433.1632486648824 30.052130889192323
  endloop
endfacet
facet normal -1.0 -6.34699213232051e-27 6.398513323343074e-12
  outer loop
    vertex 436.95645476112236 433.1632486648824 32.05213088919232
    vertex 436.95645476082797 424.194819911753 -13.947869259163912
    vertex 436.95645476112236 424.19481991175377 32.05213088920098
  endloop
endfacet
facet normal -1.0 -6.34699213232051e-27 6.398513323343074e-12
  outer loop
    vertex 436.95645476082797 424.194819911753 -13.947869259163912
    vertex 436.95645476112236 433.1632486648824 32.05213088919232
    vertex 436.95645476112685 433.1632486648824 30.052130889192323
  endloop
endfacet
facet normal -1.0 -6.34699213232051e-27 6.398513323343074e-12
  outer loop
    vertex 436.95645476082797 424.194819911753 -13.947869259163912
    vertex 436.95645476112685 433.1632486648824 30.052130889192323
    vertex 436.95645476082797 446.1948199117529 -13.947869259163912
  endloop
endfacet
facet normal -1.0 -1.4891590623569685e-08 6.566545705959189e-12
  outer loop
    vertex 447.8113754623566 440.7448198763891 -12.947869110874462
    vertex 447.8113755219164 436.74482037639154 -13.947869259235063
    vertex 447.81137552192297 436.7448203763916 -12.947869110874102
  endloop
endfacet
facet normal -1.0 -1.4891590623569685e-08 6.566545705959189e-12
  outer loop
    vertex 447.8113755219164 436.74482037639154 -13.947869259235063
    vertex 447.8113754623566 440.7448198763891 -12.947869110874462
    vertex 447.81137546235 440.744819876389 -13.947869259235425
  endloop
endfacet
facet normal -1.4893952735298358e-08 1.0 -9.305878232483354e-14
  outer loop
    vertex 445.06137577192294 436.74482033543325 -12.947869110856121
    vertex 447.8113755219164 436.74482037639154 -13.947869259235063
    vertex 445.06137577191635 436.7448203354332 -13.947869259217084
  endloop
endfacet
facet normal -1.4893952735298358e-08 1.0 -9.305878232483354e-14
  outer loop
    vertex 447.8113755219164 436.74482037639154 -13.947869259235063
    vertex 445.06137577192294 436.74482033543325 -12.947869110856121
    vertex 447.81137552192297 436.7448203763916 -12.947869110874102
  endloop
endfacet
facet normal -6.5892817161240335e-12 1.1377676246735938e-13 -1.0
  outer loop
    vertex 454.95331776082793 424.194819911753 -13.94786925928177
    vertex 447.30281466663496 430.73924959737866 -13.947869110870386
    vertex 454.95331776082793 435.19481991175303 -13.94786925928177
  endloop
endfacet
facet normal -6.5892817161240335e-12 1.1377676246735938e-13 -1.0
  outer loop
    vertex 447.30281466663496 430.73924959737866 -13.947869110870386
    vertex 454.95331776082793 424.194819911753 -13.94786925928177
    vertex 445.55281491662464 430.73924957132056 -13.947869110858965
  endloop
endfacet
facet normal -6.5892817161240335e-12 1.1377676246735938e-13 -1.0
  outer loop
    vertex 454.95331776082793 435.19481991175303 -13.94786925928177
    vertex 447.30281466663496 430.73924959737866 -13.947869110870386
    vertex 447.3028146420611 432.3892495973884 -13.947869110870476
  endloop
endfacet
facet normal -6.5892817161240335e-12 1.1377676246735938e-13 -1.0
  outer loop
    vertex 436.95645476082797 424.194819911753 -13.947869259163912
    vertex 441.1291564356612 430.9398839177783 -13.94786911081912
    vertex 452.5926040487265 424.194819911753 -13.947869259275663
  endloop
endfacet
facet normal -6.5892817161240335e-12 1.1377676246735938e-13 -1.0
  outer loop
    vertex 441.1291564356612 430.9398839177783 -13.94786911081912
    vertex 436.95645476082797 424.194819911753 -13.947869259163912
    vertex 439.78620801255863 432.4398832483092 -13.947869110810151
  endloop
endfacet
facet normal -6.5892817161240335e-12 1.1377676246735938e-13 -1.0
  outer loop
    vertex 439.78620801255863 432.4398832483092 -13.947869110810151
    vertex 436.95645476082797 424.194819911753 -13.947869259163912
    vertex 436.95645476082797 446.1948199117529 -13.947869259163912
  endloop
endfacet
facet normal -6.5892817161240335e-12 1.1377676246735938e-13 -1.0
  outer loop
    vertex 452.5926040487265 424.194819911753 -13.947869259275663
    vertex 441.1291564356612 430.9398839177783 -13.94786911081912
    vertex 454.1909480487265 424.194819911753 -13.94786925927685
  endloop
endfacet
facet normal -6.5892817161240335e-12 1.1377676246735938e-13 -1.0
  outer loop
    vertex 454.1909480487265 424.194819911753 -13.94786925927685
    vertex 441.1291564356612 430.9398839177783 -13.94786911081912
    vertex 454.95331776082793 424.194819911753 -13.94786925928177
  endloop
endfacet
facet normal -6.5892817161240335e-12 1.1377676246735938e-13 -1.0
  outer loop
    vertex 454.95331776082793 424.194819911753 -13.94786925928177
    vertex 441.1291564356612 430.9398839177783 -13.94786911081912
    vertex 445.55281491662464 430.73924957132056 -13.947869110858965
  endloop
endfacet
facet normal -6.5892817161240335e-12 1.1377676246735938e-13 -1.0
  outer loop
    vertex 439.78620801255863 432.4398832483092 -13.947869110810151
    vertex 436.95645476082797 446.1948199117529 -13.947869259163912
    vertex 439.78620801255863 437.9398839177479 -13.947869110810151
  endloop
endfacet
facet normal -6.5892817161240335e-12 1.1377676246735938e-13 -1.0
  outer loop
    vertex 439.78620801255863 437.9398839177479 -13.947869110810151
    vertex 436.95645476082797 446.1948199117529 -13.947869259163912
    vertex 441.1291564356612 439.4398839177447 -13.94786911081912
  endloop
endfacet
facet normal -6.5892817161240335e-12 1.1377676246735938e-13 -1.0
  outer loop
    vertex 441.1291564356612 439.4398839177447 -13.94786911081912
    vertex 436.95645476082797 446.1948199117529 -13.947869259163912
    vertex 443.2362080056203 439.4398839177447 -13.947869110832912
  endloop
endfacet
facet normal -6.5892817161240335e-12 1.1377676246735938e-13 -1.0
  outer loop
    vertex 443.2362080056203 439.4398839177447 -13.947869110832912
    vertex 436.95645476082797 446.1948199117529 -13.947869259163912
    vertex 445.06137571235 440.74481983543643 -13.947869259217445
  endloop
endfacet
facet normal -6.5892817161240335e-12 1.1377676246735938e-13 -1.0
  outer loop
    vertex 445.06137571235 440.74481983543643 -13.947869259217445
    vertex 436.95645476082797 446.1948199117529 -13.947869259163912
    vertex 447.81137546235 440.744819876389 -13.947869259235425
  endloop
endfacet
facet normal -6.5892817161240335e-12 1.1377676246735938e-13 -1.0
  outer loop
    vertex 454.95331776082793 435.19481991175303 -13.94786925928177
    vertex 447.8113755219164 436.74482037639154 -13.947869259235063
    vertex 454.95331776082793 439.0774840362726 -13.94786925928177
  endloop
endfacet
facet normal -6.5892817161240335e-12 1.1377676246735938e-13 -1.0
  outer loop
    vertex 447.8113755219164 436.74482037639154 -13.947869259235063
    vertex 454.95331776082793 435.19481991175303 -13.94786925928177
    vertex 445.06137577191635 436.7448203354332 -13.947869259217084
  endloop
endfacet
facet normal -6.5892817161240335e-12 1.1377676246735938e-13 -1.0
  outer loop
    vertex 454.95331776082793 439.0774840362726 -13.94786925928177
    vertex 447.8113755219164 436.74482037639154 -13.947869259235063
    vertex 447.81137546235 440.744819876389 -13.947869259235425
  endloop
endfacet
facet normal -6.5892817161240335e-12 1.1377676246735938e-13 -1.0
  outer loop
    vertex 454.95331776082793 439.0774840362726 -13.94786925928177
    vertex 447.81137546235 440.744819876389 -13.947869259235425
    vertex 454.95331776082793 446.1948199117529 -13.94786925928177
  endloop
endfacet
facet normal -6.5892817161240335e-12 1.1377676246735938e-13 -1.0
  outer loop
    vertex 454.95331776082793 446.1948199117529 -13.94786925928177
    vertex 447.81137546235 440.744819876389 -13.947869259235425
    vertex 436.95645476082797 446.1948199117529 -13.947869259163912
  endloop
endfacet
facet normal -6.5892817161240335e-12 1.1377676246735938e-13 -1.0
  outer loop
    vertex 445.55281491662464 430.73924957132056 -13.947869110858965
    vertex 443.2362080056203 430.9398839177783 -13.947869110832912
    vertex 445.5528148920537 432.38924957131877 -13.947869110859056
  endloop
endfacet
facet normal -6.5892817161240335e-12 1.1377676246735938e-13 -1.0
  outer loop
    vertex 443.2362080056203 430.9398839177783 -13.947869110832912
    vertex 445.55281491662464 430.73924957132056 -13.947869110858965
    vertex 441.1291564356612 430.9398839177783 -13.94786911081912
  endloop
endfacet
facet normal -6.5892817161240335e-12 1.1377676246735938e-13 -1.0
  outer loop
    vertex 445.5528148920537 432.38924957131877 -13.947869110859056
    vertex 443.2362080056203 430.9398839177783 -13.947869110832912
    vertex 443.2362080056203 439.4398839177447 -13.947869110832912
  endloop
endfacet
facet normal -6.5892817161240335e-12 1.1377676246735938e-13 -1.0
  outer loop
    vertex 445.5528148920537 432.38924957131877 -13.947869110859056
    vertex 443.2362080056203 439.4398839177447 -13.947869110832912
    vertex 447.3028146420611 432.3892495973884 -13.947869110870476
  endloop
endfacet
facet normal -6.5892817161240335e-12 1.1377676246735938e-13 -1.0
  outer loop
    vertex 447.3028146420611 432.3892495973884 -13.947869110870476
    vertex 443.2362080056203 439.4398839177447 -13.947869110832912
    vertex 445.06137577191635 436.7448203354332 -13.947869259217084
  endloop
endfacet
facet normal -6.5892817161240335e-12 1.1377676246735938e-13 -1.0
  outer loop
    vertex 447.3028146420611 432.3892495973884 -13.947869110870476
    vertex 445.06137577191635 436.7448203354332 -13.947869259217084
    vertex 454.95331776082793 435.19481991175303 -13.94786925928177
  endloop
endfacet
facet normal -6.5892817161240335e-12 1.1377676246735938e-13 -1.0
  outer loop
    vertex 445.06137577191635 436.7448203354332 -13.947869259217084
    vertex 443.2362080056203 439.4398839177447 -13.947869110832912
    vertex 445.06137571235 440.74481983543643 -13.947869259217445
  endloop
endfacet
facet normal 1.4891852629159708e-08 -1.0 9.305878233966446e-14
  outer loop
    vertex 447.81137546235 440.744819876389 -13.947869259235425
    vertex 445.0613757123566 440.7448198354365 -12.947869110856482
    vertex 445.06137571235 440.74481983543643 -13.947869259217445
  endloop
endfacet
facet normal 1.4891852629159708e-08 -1.0 9.305878233966446e-14
  outer loop
    vertex 445.0613757123566 440.7448198354365 -12.947869110856482
    vertex 447.81137546235 440.744819876389 -13.947869259235425
    vertex 447.8113754623566 440.7448198763891 -12.947869110874462
  endloop
endfacet
facet normal -1.4890353326783385e-08 1.0 -5.0759299137831535e-14
  outer loop
    vertex 445.55281491663123 430.73924957132056 -12.947869110858923
    vertex 447.30281466663496 430.73924959737866 -13.947869110870386
    vertex 445.55281491662464 430.73924957132056 -13.947869110858965
  endloop
endfacet
facet normal -1.4890353326783385e-08 1.0 -5.0759299137831535e-14
  outer loop
    vertex 447.30281466663496 430.73924959737866 -13.947869110870386
    vertex 445.55281491663123 430.73924957132056 -12.947869110858923
    vertex 447.30281466664155 430.73924959737866 -12.947869110870343
  endloop
endfacet
facet normal -1.0 -1.4893251345898845e-08 6.551036756336262e-12
  outer loop
    vertex 447.3028146420677 432.3892495973885 -12.947869110870434
    vertex 447.30281466663496 430.73924959737866 -13.947869110870386
    vertex 447.30281466664155 430.73924959737866 -12.947869110870343
  endloop
endfacet
facet normal -1.0 -1.4893251345898845e-08 6.551036756336262e-12
  outer loop
    vertex 447.30281466663496 430.73924959737866 -13.947869110870386
    vertex 447.3028146420677 432.3892495973885 -12.947869110870434
    vertex 447.3028146420611 432.3892495973884 -13.947869110870476
  endloop
endfacet
facet normal 1.0 1.4891501257713324e-08 -6.5510367563343505e-12
  outer loop
    vertex 445.55281491662464 430.73924957132056 -13.947869110858965
    vertex 445.55281489206027 432.3892495713188 -12.947869110859012
    vertex 445.55281491663123 430.73924957132056 -12.947869110858923
  endloop
endfacet
facet normal 1.0 1.4891501257713324e-08 -6.5510367563343505e-12
  outer loop
    vertex 445.55281489206027 432.3892495713188 -12.947869110859012
    vertex 445.55281491662464 430.73924957132056 -13.947869110858965
    vertex 445.5528148920537 432.38924957131877 -13.947869110859056
  endloop
endfacet
facet normal 1.4896953660729415e-08 -1.0 5.0759299097718696e-14
  outer loop
    vertex 447.3028146420611 432.3892495973884 -13.947869110870476
    vertex 445.55281489206027 432.3892495713188 -12.947869110859012
    vertex 445.5528148920537 432.38924957131877 -13.947869110859056
  endloop
endfacet
facet normal 1.4896953660729415e-08 -1.0 5.0759299097718696e-14
  outer loop
    vertex 445.55281489206027 432.3892495713188 -12.947869110859012
    vertex 447.3028146420611 432.3892495973884 -13.947869110870476
    vertex 447.3028146420677 432.3892495973885 -12.947869110870434
  endloop
endfacet
facet normal 1.0 1.4891590623548183e-08 -6.5651357229268224e-12
  outer loop
    vertex 445.06137577191635 436.7448203354332 -13.947869259217084
    vertex 445.0613757123566 440.7448198354365 -12.947869110856482
    vertex 445.06137577192294 436.74482033543325 -12.947869110856121
  endloop
endfacet
facet normal 1.0 1.4891590623548183e-08 -6.5651357229268224e-12
  outer loop
    vertex 445.0613757123566 440.7448198354365 -12.947869110856482
    vertex 445.06137577191635 436.7448203354332 -13.947869259217084
    vertex 445.06137571235 440.74481983543643 -13.947869259217445
  endloop
endfacet
facet normal 0.7450331717652753 -0.6670274154555973 -4.901780631436761e-12
  outer loop
    vertex 439.78620801255863 437.9398839177479 -13.947869110810151
    vertex 441.1291564356678 439.4398839177447 -12.947869110819076
    vertex 439.78620801256534 437.9398839177479 -12.947869110810108
  endloop
endfacet
facet normal 0.7450331717652753 -0.6670274154555973 -4.901780631436761e-12
  outer loop
    vertex 441.1291564356678 439.4398839177447 -12.947869110819076
    vertex 439.78620801255863 437.9398839177479 -13.947869110810151
    vertex 441.1291564356612 439.4398839177447 -13.94786911081912
  endloop
endfacet
facet normal 1.0 -9.849488506231707e-41 -6.579236420405202e-12
  outer loop
    vertex 439.78620801255863 432.4398832483092 -13.947869110810151
    vertex 439.78620801256534 437.9398839177479 -12.947869110810108
    vertex 439.78620801256534 432.4398832483092 -12.947869110810108
  endloop
endfacet
facet normal 1.0 -9.849488506231707e-41 -6.579236420405202e-12
  outer loop
    vertex 439.78620801256534 437.9398839177479 -12.947869110810108
    vertex 439.78620801255863 432.4398832483092 -13.947869110810151
    vertex 439.78620801255863 437.9398839177479 -13.947869110810151
  endloop
endfacet
facet normal 0.745033023820238 0.6670275807020823 -4.901731090281542e-12
  outer loop
    vertex 441.1291564356678 430.9398839177783 -12.947869110819076
    vertex 439.78620801255863 432.4398832483092 -13.947869110810151
    vertex 439.78620801256534 432.4398832483092 -12.947869110810108
  endloop
endfacet
facet normal 0.745033023820238 0.6670275807020823 -4.901731090281542e-12
  outer loop
    vertex 439.78620801255863 432.4398832483092 -13.947869110810151
    vertex 441.1291564356678 430.9398839177783 -12.947869110819076
    vertex 441.1291564356612 430.9398839177783 -13.94786911081912
  endloop
endfacet
facet normal 0.0 1.0 0.0
  outer loop
    vertex 441.1291564356678 430.9398839177783 -12.947869110819076
    vertex 443.2362080056203 430.9398839177783 -13.947869110832912
    vertex 441.1291564356612 430.9398839177783 -13.94786911081912
  endloop
endfacet
facet normal 0.0 1.0 0.0
  outer loop
    vertex 443.2362080056203 430.9398839177783 -13.947869110832912
    vertex 441.1291564356678 430.9398839177783 -12.947869110819076
    vertex 443.23620800562696 430.9398839177783 -12.947869110832869
  endloop
endfacet
facet normal 7.132081976327012e-12 -6.713843105969972e-14 1.0
  outer loop
    vertex 445.55281489206027 432.3892495713188 -12.947869110859012
    vertex 443.23620800562696 430.9398839177783 -12.947869110832869
    vertex 445.55281491663123 430.73924957132056 -12.947869110858923
  endloop
endfacet
facet normal 7.132081976327012e-12 -6.713843105969972e-14 1.0
  outer loop
    vertex 443.23620800562696 430.9398839177783 -12.947869110832869
    vertex 445.55281489206027 432.3892495713188 -12.947869110859012
    vertex 443.23620800562696 439.4398839177447 -12.947869110832869
  endloop
endfacet
facet normal 7.132081976327012e-12 -6.713843105969972e-14 1.0
  outer loop
    vertex 443.23620800562696 439.4398839177447 -12.947869110832869
    vertex 445.55281489206027 432.3892495713188 -12.947869110859012
    vertex 447.3028146420677 432.3892495973885 -12.947869110870434
  endloop
endfacet
facet normal 7.132081976327012e-12 -6.713843105969972e-14 1.0
  outer loop
    vertex 443.23620800562696 439.4398839177447 -12.947869110832869
    vertex 447.3028146420677 432.3892495973885 -12.947869110870434
    vertex 445.06137577192294 436.74482033543325 -12.947869110856121
  endloop
endfacet
facet normal 7.132081976327012e-12 -6.713843105969972e-14 1.0
  outer loop
    vertex 443.23620800562696 439.4398839177447 -12.947869110832869
    vertex 445.06137577192294 436.74482033543325 -12.947869110856121
    vertex 445.0613757123566 440.7448198354365 -12.947869110856482
  endloop
endfacet
facet normal 7.132081976327012e-12 -6.713843105969972e-14 1.0
  outer loop
    vertex 443.23620800562696 439.4398839177447 -12.947869110832869
    vertex 445.0613757123566 440.7448198354365 -12.947869110856482
    vertex 441.1291564356678 439.4398839177447 -12.947869110819076
  endloop
endfacet
facet normal 7.132081976327012e-12 -6.713843105969972e-14 1.0
  outer loop
    vertex 453.9533177608281 445.1948199117537 -12.947869110910187
    vertex 451.153317760831 425.19481991175377 -12.947869110931297
    vertex 453.9533177608281 425.19481991175377 -12.947869110910187
  endloop
endfacet
facet normal 7.132081976327012e-12 -6.713843105969972e-14 1.0
  outer loop
    vertex 451.153317760831 425.19481991175377 -12.947869110931297
    vertex 453.9533177608281 445.1948199117537 -12.947869110910187
    vertex 451.153317760831 426.6948199455188 -12.947869110931206
  endloop
endfacet
facet normal 7.132081976327012e-12 -6.713843105969972e-14 1.0
  outer loop
    vertex 451.153317760831 426.6948199455188 -12.947869110931206
    vertex 453.9533177608281 445.1948199117537 -12.947869110910187
    vertex 446.04188619994835 426.6948199455188 -12.947869110883028
  endloop
endfacet
facet normal 7.132081976327012e-12 -6.713843105969972e-14 1.0
  outer loop
    vertex 446.04188619994835 426.6948199455188 -12.947869110883028
    vertex 453.9533177608281 445.1948199117537 -12.947869110910187
    vertex 447.30281466664155 430.73924959737866 -12.947869110870343
  endloop
endfacet
facet normal 7.132081976327012e-12 -6.713843105969972e-14 1.0
  outer loop
    vertex 446.04188619994835 426.6948199455188 -12.947869110883028
    vertex 447.30281466664155 430.73924959737866 -12.947869110870343
    vertex 446.04188619994835 429.73324941027374 -12.947869110865701
  endloop
endfacet
facet normal 7.132081976327012e-12 -6.713843105969972e-14 1.0
  outer loop
    vertex 446.04188619994835 429.73324941027374 -12.947869110865701
    vertex 447.30281466664155 430.73924959737866 -12.947869110870343
    vertex 442.33645475357406 429.73324941027374 -12.947869110867593
  endloop
endfacet
facet normal 7.132081976327012e-12 -6.713843105969972e-14 1.0
  outer loop
    vertex 442.33645475357406 429.73324941027374 -12.947869110867593
    vertex 447.30281466664155 430.73924959737866 -12.947869110870343
    vertex 441.53645475357405 429.73324941027374 -12.947869110858612
  endloop
endfacet
facet normal 7.132081976327012e-12 -6.713843105969972e-14 1.0
  outer loop
    vertex 441.53645475357405 429.73324941027374 -12.947869110858612
    vertex 447.30281466664155 430.73924959737866 -12.947869110870343
    vertex 445.55281491663123 430.73924957132056 -12.947869110858923
  endloop
endfacet
facet normal 7.132081976327012e-12 -6.713843105969972e-14 1.0
  outer loop
    vertex 447.30281466664155 430.73924959737866 -12.947869110870343
    vertex 453.9533177608281 445.1948199117537 -12.947869110910187
    vertex 447.3028146420677 432.3892495973885 -12.947869110870434
  endloop
endfacet
facet normal 7.132081976327012e-12 -6.713843105969972e-14 1.0
  outer loop
    vertex 447.3028146420677 432.3892495973885 -12.947869110870434
    vertex 453.9533177608281 445.1948199117537 -12.947869110910187
    vertex 447.81137552192297 436.7448203763916 -12.947869110874102
  endloop
endfacet
facet normal 7.132081976327012e-12 -6.713843105969972e-14 1.0
  outer loop
    vertex 447.3028146420677 432.3892495973885 -12.947869110870434
    vertex 447.81137552192297 436.7448203763916 -12.947869110874102
    vertex 445.06137577192294 436.74482033543325 -12.947869110856121
  endloop
endfacet
facet normal 7.132081976327012e-12 -6.713843105969972e-14 1.0
  outer loop
    vertex 447.81137552192297 436.7448203763916 -12.947869110874102
    vertex 453.9533177608281 445.1948199117537 -12.947869110910187
    vertex 447.8113754623566 440.7448198763891 -12.947869110874462
  endloop
endfacet
facet normal 7.132081976327012e-12 -6.713843105969972e-14 1.0
  outer loop
    vertex 447.8113754623566 440.7448198763891 -12.947869110874462
    vertex 453.9533177608281 445.1948199117537 -12.947869110910187
    vertex 451.153317760831 443.69481991175377 -12.947869110932018
  endloop
endfacet
facet normal 7.132081976327012e-12 -6.713843105969972e-14 1.0
  outer loop
    vertex 447.8113754623566 440.7448198763891 -12.947869110874462
    vertex 451.153317760831 443.69481991175377 -12.947869110932018
    vertex 439.05645476083095 443.6632486648824 -12.947869110816484
  endloop
endfacet
facet normal 7.132081976327012e-12 -6.713843105969972e-14 1.0
  outer loop
    vertex 439.05645476083095 443.6632486648824 -12.947869110816484
    vertex 451.153317760831 443.69481991175377 -12.947869110932018
    vertex 450.3863757682782 443.69481989586245 -12.947869110909968
  endloop
endfacet
facet normal 7.132081976327012e-12 -6.713843105969972e-14 1.0
  outer loop
    vertex 439.05645476083095 443.6632486648824 -12.947869110816484
    vertex 450.3863757682782 443.69481989586245 -12.947869110909968
    vertex 448.1794477682782 443.6948198849443 -12.947869110895585
  endloop
endfacet
facet normal 7.132081976327012e-12 -6.713843105969972e-14 1.0
  outer loop
    vertex 439.05645476083095 443.6632486648824 -12.947869110816484
    vertex 448.1794477682782 443.6948198849443 -12.947869110895585
    vertex 447.18637576827814 443.69481988196543 -12.947869110893063
  endloop
endfacet
facet normal 7.132081976327012e-12 -6.713843105969972e-14 1.0
  outer loop
    vertex 451.153317760831 443.69481991175377 -12.947869110932018
    vertex 453.9533177608281 445.1948199117537 -12.947869110910187
    vertex 451.153317760831 445.19481991175377 -12.947869110932018
  endloop
endfacet
facet normal 7.132081976327012e-12 -6.713843105969972e-14 1.0
  outer loop
    vertex 450.3863757682782 443.69481989586245 -12.947869110909968
    vertex 448.179447760831 444.6948198849443 -12.947869110895404
    vertex 448.1794477682782 443.6948198849443 -12.947869110895585
  endloop
endfacet
facet normal 7.132081976327012e-12 -6.713843105969972e-14 1.0
  outer loop
    vertex 448.179447760831 444.6948198849443 -12.947869110895404
    vertex 450.3863757682782 443.69481989586245 -12.947869110909968
    vertex 450.386375760831 444.6948198849443 -12.947869110896432
  endloop
endfacet
facet normal 7.132081976327012e-12 -6.713843105969972e-14 1.0
  outer loop
    vertex 447.18637576827814 444.2432789117538 -12.947869110881513
    vertex 442.33645475357406 443.8554919117538 -12.947869110872015
    vertex 447.18637576827814 443.69481988196543 -12.947869110893063
  endloop
endfacet
facet normal 7.132081976327012e-12 -6.713843105969972e-14 1.0
  outer loop
    vertex 442.33645475357406 443.8554919117538 -12.947869110872015
    vertex 447.18637576827814 444.2432789117538 -12.947869110881513
    vertex 444.73645475357415 444.2432789117538 -12.94786911086261
  endloop
endfacet
facet normal 7.132081976327012e-12 -6.713843105969972e-14 1.0
  outer loop
    vertex 442.33645475357406 443.8554919117538 -12.947869110872015
    vertex 444.73645475357415 444.2432789117538 -12.94786911086261
    vertex 442.336454753573 445.194819911711 -12.947869110861367
  endloop
endfacet
facet normal 7.132081976327012e-12 -6.713843105969972e-14 1.0
  outer loop
    vertex 442.336454753573 445.194819911711 -12.947869110861367
    vertex 444.73645475357415 444.2432789117538 -12.94786911086261
    vertex 444.73645475357415 445.1948199117537 -12.94786911086261
  endloop
endfacet
facet normal 7.132081976327012e-12 -6.713843105969972e-14 1.0
  outer loop
    vertex 439.05645476083095 443.6632486648824 -12.947869110816484
    vertex 440.456454760831 443.8554919117538 -12.947869110829034
    vertex 439.05645476083095 444.85549191175375 -12.947869110816484
  endloop
endfacet
facet normal 7.132081976327012e-12 -6.713843105969972e-14 1.0
  outer loop
    vertex 440.456454760831 443.8554919117538 -12.947869110829034
    vertex 439.05645476083095 443.6632486648824 -12.947869110816484
    vertex 447.18637576827814 443.69481988196543 -12.947869110893063
  endloop
endfacet
facet normal 7.132081976327012e-12 -6.713843105969972e-14 1.0
  outer loop
    vertex 440.456454760831 443.8554919117538 -12.947869110829034
    vertex 447.18637576827814 443.69481988196543 -12.947869110893063
    vertex 442.33645475357406 443.8554919117538 -12.947869110872015
  endloop
endfacet
facet normal 7.132081976327012e-12 -6.713843105969972e-14 1.0
  outer loop
    vertex 439.05645476083095 444.85549191175375 -12.947869110816484
    vertex 440.456454760831 443.8554919117538 -12.947869110829034
    vertex 440.456454760831 444.85549191175375 -12.947869110829034
  endloop
endfacet
facet normal 7.132081976327012e-12 -6.713843105969972e-14 1.0
  outer loop
    vertex 441.53645475357405 429.73324941027374 -12.947869110858612
    vertex 440.456454760831 426.45549191175377 -12.94786911082804
    vertex 441.53645475357405 426.45549191175377 -12.947869110848416
  endloop
endfacet
facet normal 7.132081976327012e-12 -6.713843105969972e-14 1.0
  outer loop
    vertex 440.456454760831 426.45549191175377 -12.94786911082804
    vertex 441.53645475357405 429.73324941027374 -12.947869110858612
    vertex 439.05645476083095 426.66324866488236 -12.947869110816484
  endloop
endfacet
facet normal 7.132081976327012e-12 -6.713843105969972e-14 1.0
  outer loop
    vertex 439.05645476083095 426.66324866488236 -12.947869110816484
    vertex 441.53645475357405 429.73324941027374 -12.947869110858612
    vertex 437.95645476083104 426.66324866488236 -12.947869110805453
  endloop
endfacet
facet normal 7.132081976327012e-12 -6.713843105969972e-14 1.0
  outer loop
    vertex 437.95645476083104 426.66324866488236 -12.947869110805453
    vertex 441.53645475357405 429.73324941027374 -12.947869110858612
    vertex 439.78620801256534 432.4398832483092 -12.947869110810108
  endloop
endfacet
facet normal 7.132081976327012e-12 -6.713843105969972e-14 1.0
  outer loop
    vertex 437.95645476083104 426.66324866488236 -12.947869110805453
    vertex 439.78620801256534 432.4398832483092 -12.947869110810108
    vertex 437.95645476083104 443.6632486648824 -12.947869110805453
  endloop
endfacet
facet normal 7.132081976327012e-12 -6.713843105969972e-14 1.0
  outer loop
    vertex 439.78620801256534 432.4398832483092 -12.947869110810108
    vertex 441.53645475357405 429.73324941027374 -12.947869110858612
    vertex 441.1291564356678 430.9398839177783 -12.947869110819076
  endloop
endfacet
facet normal 7.132081976327012e-12 -6.713843105969972e-14 1.0
  outer loop
    vertex 441.1291564356678 430.9398839177783 -12.947869110819076
    vertex 441.53645475357405 429.73324941027374 -12.947869110858612
    vertex 445.55281491663123 430.73924957132056 -12.947869110858923
  endloop
endfacet
facet normal 7.132081976327012e-12 -6.713843105969972e-14 1.0
  outer loop
    vertex 441.1291564356678 430.9398839177783 -12.947869110819076
    vertex 445.55281491663123 430.73924957132056 -12.947869110858923
    vertex 443.23620800562696 430.9398839177783 -12.947869110832869
  endloop
endfacet
facet normal 7.132081976327012e-12 -6.713843105969972e-14 1.0
  outer loop
    vertex 437.95645476083104 443.6632486648824 -12.947869110805453
    vertex 439.78620801256534 432.4398832483092 -12.947869110810108
    vertex 439.78620801256534 437.9398839177479 -12.947869110810108
  endloop
endfacet
facet normal 7.132081976327012e-12 -6.713843105969972e-14 1.0
  outer loop
    vertex 437.95645476083104 443.6632486648824 -12.947869110805453
    vertex 439.78620801256534 437.9398839177479 -12.947869110810108
    vertex 441.1291564356678 439.4398839177447 -12.947869110819076
  endloop
endfacet
facet normal 7.132081976327012e-12 -6.713843105969972e-14 1.0
  outer loop
    vertex 437.95645476083104 443.6632486648824 -12.947869110805453
    vertex 441.1291564356678 439.4398839177447 -12.947869110819076
    vertex 445.0613757123566 440.7448198354365 -12.947869110856482
  endloop
endfacet
facet normal 7.132081976327012e-12 -6.713843105969972e-14 1.0
  outer loop
    vertex 437.95645476083104 443.6632486648824 -12.947869110805453
    vertex 445.0613757123566 440.7448198354365 -12.947869110856482
    vertex 447.8113754623566 440.7448198763891 -12.947869110874462
  endloop
endfacet
facet normal 7.132081976327012e-12 -6.713843105969972e-14 1.0
  outer loop
    vertex 437.95645476083104 443.6632486648824 -12.947869110805453
    vertex 447.8113754623566 440.7448198763891 -12.947869110874462
    vertex 439.05645476083095 443.6632486648824 -12.947869110816484
  endloop
endfacet
facet normal 7.132081976327012e-12 -6.713843105969972e-14 1.0
  outer loop
    vertex 444.7418832497786 429.732163104975 -12.947869110859346
    vertex 442.33645475357406 429.23327891175376 -12.947869110874
    vertex 444.73645180340435 429.232192606455 -12.94786911086252
  endloop
endfacet
facet normal 7.132081976327012e-12 -6.713843105969972e-14 1.0
  outer loop
    vertex 442.33645475357406 429.23327891175376 -12.947869110874
    vertex 444.7418832497786 429.732163104975 -12.947869110859346
    vertex 442.33645475357406 429.73324941027374 -12.947869110867593
  endloop
endfacet
facet normal 7.132081976327012e-12 -6.713843105969972e-14 1.0
  outer loop
    vertex 442.33645475357406 429.73324941027374 -12.947869110867593
    vertex 444.7418832497786 429.732163104975 -12.947869110859346
    vertex 446.04188619994835 429.73324941027374 -12.947869110865701
  endloop
endfacet
facet normal 7.132081976327012e-12 -6.713843105969972e-14 1.0
  outer loop
    vertex 450.3863760326526 425.6948199087753 -12.94786911091033
    vertex 448.18637602148186 426.69481994253994 -12.947869110900347
    vertex 448.18637603265256 425.694819893881 -12.947869110900617
  endloop
endfacet
facet normal 7.132081976327012e-12 -6.713843105969972e-14 1.0
  outer loop
    vertex 448.18637602148186 426.69481994253994 -12.947869110900347
    vertex 450.3863760326526 425.6948199087753 -12.94786911091033
    vertex 450.3863760214818 426.69481994253994 -12.94786911091448
  endloop
endfacet
facet normal 7.132081976327012e-12 -6.713843105969972e-14 1.0
  outer loop
    vertex 448.18637602148186 426.69481994253994 -12.947869110900347
    vertex 450.3863760214818 426.69481994253994 -12.94786911091448
    vertex 451.153317760831 426.6948199455188 -12.947869110931206
  endloop
endfacet
facet normal 7.132081976327012e-12 -6.713843105969972e-14 1.0
  outer loop
    vertex 448.18637602148186 426.69481994253994 -12.947869110900347
    vertex 451.153317760831 426.6948199455188 -12.947869110931206
    vertex 446.04188619994835 426.6948199455188 -12.947869110883028
  endloop
endfacet
facet normal 7.132081976327012e-12 -6.713843105969972e-14 1.0
  outer loop
    vertex 440.456454760831 426.45549191175377 -12.94786911082804
    vertex 439.05645476083095 425.4554919117538 -12.947869110816484
    vertex 440.456454760831 425.4554919117538 -12.947869110828671
  endloop
endfacet
facet normal 7.132081976327012e-12 -6.713843105969972e-14 1.0
  outer loop
    vertex 439.05645476083095 425.4554919117538 -12.947869110816484
    vertex 440.456454760831 426.45549191175377 -12.94786911082804
    vertex 439.05645476083095 426.66324866488236 -12.947869110816484
  endloop
endfacet
facet normal 5.250655564633381e-12 3.672629113893235e-12 1.0
  outer loop
    vertex 444.7364518034186 425.19481991175354 -12.94786911085855
    vertex 440.456454760831 425.4554919117538 -12.947869110828671
    vertex 437.95645476083104 425.19481991175377 -12.947869110864469
  endloop
endfacet
facet normal 5.250655564633381e-12 3.672629113893235e-12 1.0
  outer loop
    vertex 440.456454760831 425.4554919117538 -12.947869110828671
    vertex 444.7364518034186 425.19481991175354 -12.94786911085855
    vertex 444.73645180340435 429.232192606455 -12.94786911086252
  endloop
endfacet
facet normal 5.250655564633381e-12 3.672629113893235e-12 1.0
  outer loop
    vertex 440.456454760831 425.4554919117538 -12.947869110828671
    vertex 444.73645180340435 429.232192606455 -12.94786911086252
    vertex 441.53645475357405 426.45549191175377 -12.947869110848416
  endloop
endfacet
facet normal 5.250655564633381e-12 3.672629113893235e-12 1.0
  outer loop
    vertex 441.53645475357405 426.45549191175377 -12.947869110848416
    vertex 444.73645180340435 429.232192606455 -12.94786911086252
    vertex 442.33645475357406 429.23327891175376 -12.947869110874
  endloop
endfacet
facet normal 5.250655564633381e-12 3.672629113893235e-12 1.0
  outer loop
    vertex 441.53645475357405 426.45549191175377 -12.947869110848416
    vertex 442.33645475357406 429.23327891175376 -12.947869110874
    vertex 441.53645475357405 429.73324941027374 -12.947869110858612
  endloop
endfacet
facet normal 5.250655564633381e-12 3.672629113893235e-12 1.0
  outer loop
    vertex 441.53645475357405 429.73324941027374 -12.947869110858612
    vertex 442.33645475357406 429.23327891175376 -12.947869110874
    vertex 442.33645475357406 429.73324941027374 -12.947869110867593
  endloop
endfacet
facet normal 5.250655564633381e-12 3.672629113893235e-12 1.0
  outer loop
    vertex 440.456454760831 426.45549191175377 -12.94786911082804
    vertex 440.456454760831 425.4554919117538 -12.947869110828671
    vertex 441.53645475357405 426.45549191175377 -12.947869110848416
  endloop
endfacet
facet normal 5.250655564633381e-12 3.672629113893235e-12 1.0
  outer loop
    vertex 437.95645476083104 425.19481991175377 -12.947869110864469
    vertex 439.05645476083095 425.4554919117538 -12.947869110816484
    vertex 437.95645476083104 426.66324866488236 -12.947869110805453
  endloop
endfacet
facet normal 5.250655564633381e-12 3.672629113893235e-12 1.0
  outer loop
    vertex 439.05645476083095 425.4554919117538 -12.947869110816484
    vertex 437.95645476083104 425.19481991175377 -12.947869110864469
    vertex 440.456454760831 425.4554919117538 -12.947869110828671
  endloop
endfacet
facet normal 5.250655564633381e-12 3.672629113893235e-12 1.0
  outer loop
    vertex 437.95645476083104 426.66324866488236 -12.947869110805453
    vertex 439.05645476083095 425.4554919117538 -12.947869110816484
    vertex 439.05645476083095 426.66324866488236 -12.947869110816484
  endloop
endfacet
facet normal 6.9327570946160825e-12 2.0187821535983057e-11 1.0
  outer loop
    vertex 442.336454753573 445.194819911711 -12.947869110861367
    vertex 440.456454760831 443.8554919117538 -12.947869110829034
    vertex 442.33645475357406 443.8554919117538 -12.947869110872015
  endloop
endfacet
facet normal 6.9327570946160825e-12 2.0187821535983057e-11 1.0
  outer loop
    vertex 440.456454760831 443.8554919117538 -12.947869110829034
    vertex 442.336454753573 445.194819911711 -12.947869110861367
    vertex 440.456454760831 444.85549191175375 -12.947869110829034
  endloop
endfacet
facet normal 6.9327570946160825e-12 2.0187821535983057e-11 1.0
  outer loop
    vertex 440.456454760831 444.85549191175375 -12.947869110829034
    vertex 442.336454753573 445.194819911711 -12.947869110861367
    vertex 439.05645476083095 444.85549191175375 -12.947869110816484
  endloop
endfacet
facet normal 6.9327570946160825e-12 2.0187821535983057e-11 1.0
  outer loop
    vertex 439.05645476083095 444.85549191175375 -12.947869110816484
    vertex 437.95645476083104 443.6632486648824 -12.947869110805453
    vertex 439.05645476083095 443.6632486648824 -12.947869110816484
  endloop
endfacet
facet normal 6.9327570946160825e-12 2.0187821535983057e-11 1.0
  outer loop
    vertex 437.95645476083104 443.6632486648824 -12.947869110805453
    vertex 439.05645476083095 444.85549191175375 -12.947869110816484
    vertex 437.95645476083104 445.1948199117537 -12.947869110868078
  endloop
endfacet
facet normal 6.9327570946160825e-12 2.0187821535983057e-11 1.0
  outer loop
    vertex 437.95645476083104 445.1948199117537 -12.947869110868078
    vertex 439.05645476083095 444.85549191175375 -12.947869110816484
    vertex 442.336454753573 445.194819911711 -12.947869110861367
  endloop
endfacet
facet normal 6.338706837537914e-12 1.399124810809849e-13 1.0
  outer loop
    vertex 454.9533177611224 424.19481991175377 32.0521308890833
    vertex 453.9533177611224 425.19481991175377 32.05213088908979
    vertex 436.95645476112236 424.19481991175377 32.05213088920098
  endloop
endfacet
facet normal 6.338706837537914e-12 1.399124810809849e-13 1.0
  outer loop
    vertex 453.9533177611224 425.19481991175377 32.05213088908979
    vertex 454.9533177611224 424.19481991175377 32.0521308890833
    vertex 454.9533177611224 446.19481991175377 32.0521308890833
  endloop
endfacet
facet normal 6.338706837537914e-12 1.399124810809849e-13 1.0
  outer loop
    vertex 453.9533177611224 425.19481991175377 32.05213088908979
    vertex 454.9533177611224 446.19481991175377 32.0521308890833
    vertex 453.9533177611224 445.1948199117537 32.05213088908979
  endloop
endfacet
facet normal 6.338706837537914e-12 1.399124810809849e-13 1.0
  outer loop
    vertex 453.9533177611224 445.1948199117537 32.05213088908979
    vertex 454.9533177611224 446.19481991175377 32.0521308890833
    vertex 437.95645476112526 445.1948199117537 32.05213088913188
  endloop
endfacet
facet normal 6.338706837537914e-12 1.399124810809849e-13 1.0
  outer loop
    vertex 437.95645476112526 445.1948199117537 32.05213088913188
    vertex 436.95645476112236 437.1632486648824 32.05213088919232
    vertex 437.95645476112526 437.1632486648824 32.05213088919451
  endloop
endfacet
facet normal 6.338706837537914e-12 1.399124810809849e-13 1.0
  outer loop
    vertex 436.95645476112236 437.1632486648824 32.05213088919232
    vertex 437.95645476112526 445.1948199117537 32.05213088913188
    vertex 436.95645476112236 446.19481991175377 32.05213088920098
  endloop
endfacet
facet normal 6.338706837537914e-12 1.399124810809849e-13 1.0
  outer loop
    vertex 436.95645476112236 446.19481991175377 32.05213088920098
    vertex 437.95645476112526 445.1948199117537 32.05213088913188
    vertex 454.9533177611224 446.19481991175377 32.0521308890833
  endloop
endfacet
facet normal 6.338706837537914e-12 1.399124810809849e-13 1.0
  outer loop
    vertex 436.95645476112236 424.19481991175377 32.05213088920098
    vertex 437.95645476112526 425.19481991175377 32.05213088913549
    vertex 436.95645476112236 433.1632486648824 32.05213088919232
  endloop
endfacet
facet normal 6.338706837537914e-12 1.399124810809849e-13 1.0
  outer loop
    vertex 437.95645476112526 425.19481991175377 32.05213088913549
    vertex 436.95645476112236 424.19481991175377 32.05213088920098
    vertex 453.9533177611224 425.19481991175377 32.05213088908979
  endloop
endfacet
facet normal 6.338706837537914e-12 1.399124810809849e-13 1.0
  outer loop
    vertex 436.95645476112236 433.1632486648824 32.05213088919232
    vertex 437.95645476112526 425.19481991175377 32.05213088913549
    vertex 437.95645476112526 433.1632486648824 32.05213088919451
  endloop
endfacet
facet normal 6.076736644071551e-12 1.0 1.783190310546578e-13
  outer loop
    vertex 437.95645476112526 425.19481991175377 32.05213088913549
    vertex 444.7364518036339 425.1948199119042 28.05213088914142
    vertex 437.95645476104625 425.19481991190435 28.052130889135498
  endloop
endfacet
facet normal 6.076736644071551e-12 1.0 1.783190310546578e-13
  outer loop
    vertex 444.7364518036339 425.1948199119042 28.05213088914142
    vertex 437.95645476112526 425.19481991175377 32.05213088913549
    vertex 453.9533177611224 425.19481991175377 32.05213088908979
  endloop
endfacet
facet normal 6.076736644071551e-12 1.0 1.783190310546578e-13
  outer loop
    vertex 444.7364518036339 425.1948199119042 28.05213088914142
    vertex 453.9533177611224 425.19481991175377 32.05213088908979
    vertex 444.73645180379606 425.19481991170954 25.05213088914147
  endloop
endfacet
facet normal 6.076736644071551e-12 1.0 1.783190310546578e-13
  outer loop
    vertex 444.73645180379606 425.19481991170954 25.05213088914147
    vertex 453.9533177611224 425.19481991175377 32.05213088908979
    vertex 451.15331776120837 425.19481991170977 25.05213088906872
  endloop
endfacet
facet normal 6.076736644071551e-12 1.0 1.783190310546578e-13
  outer loop
    vertex 451.15331776120837 425.19481991170977 25.05213088906872
    vertex 453.9533177611224 425.19481991175377 32.05213088908979
    vertex 453.9533177608281 425.19481991175377 -12.947869110910187
  endloop
endfacet
facet normal 6.076736644071551e-12 1.0 1.783190310546578e-13
  outer loop
    vertex 453.9533177608281 425.19481991175377 -12.947869110910187
    vertex 451.153317760831 425.19481991175377 -12.947869110931297
    vertex 451.15331776120837 425.19481991170977 25.05213088906872
  endloop
endfacet
facet normal 1.0 -1.6940487866441748e-12 -6.470004875524022e-12
  outer loop
    vertex 437.95645476112526 425.19481991175377 32.05213088913549
    vertex 437.9564547611297 433.1632486648824 30.052130889194512
    vertex 437.95645476112526 433.1632486648824 32.05213088919451
  endloop
endfacet
facet normal 1.0 -1.6940487866441748e-12 -6.470004875524022e-12
  outer loop
    vertex 437.9564547611297 433.1632486648824 30.052130889194512
    vertex 437.95645476112526 425.19481991175377 32.05213088913549
    vertex 437.95645476104625 425.19481991190435 28.052130889135498
  endloop
endfacet
facet normal 1.0 -1.6940487866441748e-12 -6.470004875524022e-12
  outer loop
    vertex 437.9564547611297 433.1632486648824 30.052130889194512
    vertex 437.95645476104625 425.19481991190435 28.052130889135498
    vertex 437.9564547611297 437.1632486648824 30.052130889194512
  endloop
endfacet
facet normal 1.0 -1.6940487866441748e-12 -6.470004875524022e-12
  outer loop
    vertex 437.9564547611297 437.1632486648824 30.052130889194512
    vertex 437.95645476104625 425.19481991190435 28.052130889135498
    vertex 437.95645476104625 426.66324866503294 28.052130889194515
  endloop
endfacet
facet normal 1.0 -1.6940487866441748e-12 -6.470004875524022e-12
  outer loop
    vertex 437.95645476083104 426.66324866488236 -12.947869110805453
    vertex 437.95645476111525 443.6632486657101 28.052130889194515
    vertex 437.95645476104625 426.66324866503294 28.052130889194515
  endloop
endfacet
facet normal 1.0 -1.6940487866441748e-12 -6.470004875524022e-12
  outer loop
    vertex 437.95645476111525 443.6632486657101 28.052130889194515
    vertex 437.95645476083104 426.66324866488236 -12.947869110805453
    vertex 437.95645476083104 443.6632486648824 -12.947869110805453
  endloop
endfacet
facet normal 1.0 -1.6940487866441748e-12 -6.470004875524022e-12
  outer loop
    vertex 437.9564547611297 437.1632486648824 30.052130889194512
    vertex 437.95645476112526 445.1948199117537 32.05213088913188
    vertex 437.95645476112526 437.1632486648824 32.05213088919451
  endloop
endfacet
facet normal 1.0 -1.6940487866441748e-12 -6.470004875524022e-12
  outer loop
    vertex 437.95645476112526 445.1948199117537 32.05213088913188
    vertex 437.9564547611297 437.1632486648824 30.052130889194512
    vertex 437.95645476111525 445.19481991258147 28.052130889131888
  endloop
endfacet
facet normal 1.0 -1.6940487866441748e-12 -6.470004875524022e-12
  outer loop
    vertex 437.95645476111525 445.19481991258147 28.052130889131888
    vertex 437.9564547611297 437.1632486648824 30.052130889194512
    vertex 437.95645476111525 443.6632486657101 28.052130889194515
  endloop
endfacet
facet normal 1.0 -1.6940487866441748e-12 -6.470004875524022e-12
  outer loop
    vertex 437.95645476111525 443.6632486657101 28.052130889194515
    vertex 437.9564547611297 437.1632486648824 30.052130889194512
    vertex 437.95645476104625 426.66324866503294 28.052130889194515
  endloop
endfacet
facet normal -2.4579881024162685e-11 -1.0 4.300551620161752e-12
  outer loop
    vertex 444.73645475357415 445.1948199117537 -12.94786911086261
    vertex 442.3364547538572 445.1948199125388 28.0521308891386
    vertex 442.336454753573 445.194819911711 -12.947869110861367
  endloop
endfacet
facet normal -2.4579881024162685e-11 -1.0 4.300551620161752e-12
  outer loop
    vertex 453.9533177608281 445.1948199117537 -12.947869110910187
    vertex 451.15331776106075 445.1948199118089 25.05213088906791
    vertex 451.153317760831 445.19481991175377 -12.947869110932018
  endloop
endfacet
facet normal -2.4579881024162685e-11 -1.0 4.300551620161752e-12
  outer loop
    vertex 442.3364547538572 445.1948199125388 28.0521308891386
    vertex 437.95645476112526 445.1948199117537 32.05213088913188
    vertex 437.95645476111525 445.19481991258147 28.052130889131888
  endloop
endfacet
facet normal -2.4579881024162685e-11 -1.0 4.300551620161752e-12
  outer loop
    vertex 437.95645476112526 445.1948199117537 32.05213088913188
    vertex 442.3364547538572 445.1948199125388 28.0521308891386
    vertex 453.9533177611224 445.1948199117537 32.05213088908979
  endloop
endfacet
facet normal -2.4579881024162685e-11 -1.0 4.300551620161752e-12
  outer loop
    vertex 453.9533177611224 445.1948199117537 32.05213088908979
    vertex 442.3364547538572 445.1948199125388 28.0521308891386
    vertex 444.73645475380386 445.1948199118089 25.05213088913732
  endloop
endfacet
facet normal -2.4579881024162685e-11 -1.0 4.300551620161752e-12
  outer loop
    vertex 444.73645475380386 445.1948199118089 25.05213088913732
    vertex 442.3364547538572 445.1948199125388 28.0521308891386
    vertex 444.73645475357415 445.1948199117537 -12.94786911086261
  endloop
endfacet
facet normal -2.4579881024162685e-11 -1.0 4.300551620161752e-12
  outer loop
    vertex 453.9533177611224 445.1948199117537 32.05213088908979
    vertex 444.73645475380386 445.1948199118089 25.05213088913732
    vertex 451.15331776106075 445.1948199118089 25.05213088906791
  endloop
endfacet
facet normal -2.4579881024162685e-11 -1.0 4.300551620161752e-12
  outer loop
    vertex 453.9533177611224 445.1948199117537 32.05213088908979
    vertex 451.15331776106075 445.1948199118089 25.05213088906791
    vertex 453.9533177608281 445.1948199117537 -12.947869110910187
  endloop
endfacet
facet normal -1.0 -1.226482571413132e-26 6.541394036857843e-12
  outer loop
    vertex 453.9533177608281 445.1948199117537 -12.947869110910187
    vertex 453.9533177611224 425.19481991175377 32.05213088908979
    vertex 453.9533177611224 445.1948199117537 32.05213088908979
  endloop
endfacet
facet normal -1.0 -1.226482571413132e-26 6.541394036857843e-12
  outer loop
    vertex 453.9533177611224 425.19481991175377 32.05213088908979
    vertex 453.9533177608281 445.1948199117537 -12.947869110910187
    vertex 453.9533177608281 425.19481991175377 -12.947869110910187
  endloop
endfacet
facet normal 1.0 4.0760941150169396e-11 -7.900095012624353e-12
  outer loop
    vertex 451.153317761183 443.6948199117264 25.05213088905645
    vertex 451.153317760831 445.19481991175377 -12.947869110932018
    vertex 451.15331776106075 445.1948199118089 25.05213088906791
  endloop
endfacet
facet normal 1.0 4.0760941150169396e-11 -7.900095012624353e-12
  outer loop
    vertex 451.153317760831 445.19481991175377 -12.947869110932018
    vertex 451.153317761183 443.6948199117264 25.05213088905645
    vertex 451.153317760831 443.69481991175377 -12.947869110932018
  endloop
endfacet
facet normal -1.0 -6.425556889618428e-11 7.900108720773198e-12
  outer loop
    vertex 444.73645475357415 445.1948199117537 -12.94786911086261
    vertex 444.7364547539262 444.24327891172646 25.052130889125948
    vertex 444.73645475380386 445.1948199118089 25.05213088913732
  endloop
endfacet
facet normal -1.0 -6.425556889618428e-11 7.900108720773198e-12
  outer loop
    vertex 444.7364547539262 444.24327891172646 25.052130889125948
    vertex 444.73645475357415 445.1948199117537 -12.94786911086261
    vertex 444.73645475357415 444.2432789117538 -12.94786911086261
  endloop
endfacet
facet normal -1.415518255665624e-23 -1.0 -1.834208190433732e-12
  outer loop
    vertex 447.18637576827814 444.2432789117538 -12.947869110881513
    vertex 444.7364547539262 444.24327891172646 25.052130889125948
    vertex 444.73645475357415 444.2432789117538 -12.94786911086261
  endloop
endfacet
facet normal -1.415518255665624e-23 -1.0 -1.834208190433732e-12
  outer loop
    vertex 444.7364547539262 444.24327891172646 25.052130889125948
    vertex 447.18637576827814 444.2432789117538 -12.947869110881513
    vertex 447.18637576863017 444.24327891172646 25.052130889106955
  endloop
endfacet
facet normal -1.0 -2.411303841215937e-22 9.258791280728996e-12
  outer loop
    vertex 447.18637576827814 444.2432789117538 -12.947869110881513
    vertex 447.18637576863017 443.6948198819381 25.052130889095405
    vertex 447.18637576863017 444.24327891172646 25.052130889106955
  endloop
endfacet
facet normal -1.0 -2.411303841215937e-22 9.258791280728996e-12
  outer loop
    vertex 447.18637576863017 443.6948198819381 25.052130889095405
    vertex 447.18637576827814 444.2432789117538 -12.947869110881513
    vertex 447.18637576827814 443.69481988196543 -12.947869110893063
  endloop
endfacet
facet normal 2.999647511868728e-09 -1.0 -1.8342082182068425e-12
  outer loop
    vertex 448.1794477682782 443.6948198849443 -12.947869110895585
    vertex 447.18637576863017 443.6948198819381 25.052130889095405
    vertex 447.18637576827814 443.69481988196543 -12.947869110893063
  endloop
endfacet
facet normal 2.999647511868728e-09 -1.0 -1.8342082182068425e-12
  outer loop
    vertex 447.18637576863017 443.6948198819381 25.052130889095405
    vertex 448.1794477682782 443.6948198849443 -12.947869110895585
    vertex 448.1794477686302 443.69481988491697 25.05213088909289
  endloop
endfacet
facet normal 1.0 7.4471677047327645e-09 -9.258791267069338e-12
  outer loop
    vertex 448.1794477686302 443.69481988491697 25.05213088909289
    vertex 448.179447760831 444.6948198849443 -12.947869110895404
    vertex 448.17944776118304 444.69481988491697 25.052130889093068
  endloop
endfacet
facet normal 1.0 7.4471677047327645e-09 -9.258791267069338e-12
  outer loop
    vertex 448.179447760831 444.6948198849443 -12.947869110895404
    vertex 448.1794477686302 443.69481988491697 25.05213088909289
    vertex 448.1794477682782 443.6948198849443 -12.947869110895585
  endloop
endfacet
facet normal -8.564306821927574e-25 -1.0 -1.8342081904337324e-12
  outer loop
    vertex 450.386375760831 444.6948198849443 -12.947869110896432
    vertex 448.17944776118304 444.69481988491697 25.052130889093068
    vertex 448.179447760831 444.6948198849443 -12.947869110895404
  endloop
endfacet
facet normal -8.564306821927574e-25 -1.0 -1.8342081904337324e-12
  outer loop
    vertex 448.17944776118304 444.69481988491697 25.052130889093068
    vertex 450.386375760831 444.6948198849443 -12.947869110896432
    vertex 450.38637576118305 444.69481988491697 25.052130889092126
  endloop
endfacet
facet normal -1.0 -7.447167786041657e-09 9.258791267069336e-12
  outer loop
    vertex 450.386375760831 444.6948198849443 -12.947869110896432
    vertex 450.38637576863016 443.694819895835 25.05213088907859
    vertex 450.38637576118305 444.69481988491697 25.052130889092126
  endloop
endfacet
facet normal -1.0 -7.447167786041657e-09 9.258791267069336e-12
  outer loop
    vertex 450.38637576863016 443.694819895835 25.05213088907859
    vertex 450.386375760831 444.6948198849443 -12.947869110896432
    vertex 450.3863757682782 443.69481989586245 -12.947869110909968
  endloop
endfacet
facet normal 2.0720463780801223e-08 -0.9999999999999999 -1.8342083822801813e-12
  outer loop
    vertex 451.153317760831 443.69481991175377 -12.947869110932018
    vertex 450.38637576863016 443.694819895835 25.05213088907859
    vertex 450.3863757682782 443.69481989586245 -12.947869110909968
  endloop
endfacet
facet normal 2.0720463780801223e-08 -0.9999999999999999 -1.8342083822801813e-12
  outer loop
    vertex 450.38637576863016 443.694819895835 25.05213088907859
    vertex 451.153317760831 443.69481991175377 -12.947869110932018
    vertex 451.153317761183 443.6948199117264 25.05213088905645
  endloop
endfacet
facet normal 9.214476664634168e-12 -7.881154358268873e-12 1.0
  outer loop
    vertex 451.153317761183 443.6948199117264 25.05213088905645
    vertex 450.38637576118305 444.69481988491697 25.052130889092126
    vertex 450.38637576863016 443.694819895835 25.05213088907859
  endloop
endfacet
facet normal 9.214476664634168e-12 -7.881154358268873e-12 1.0
  outer loop
    vertex 450.38637576118305 444.69481988491697 25.052130889092126
    vertex 451.153317761183 443.6948199117264 25.05213088905645
    vertex 451.15331776106075 445.1948199118089 25.05213088906791
  endloop
endfacet
facet normal 9.214476664634168e-12 -7.881154358268873e-12 1.0
  outer loop
    vertex 450.38637576118305 444.69481988491697 25.052130889092126
    vertex 451.15331776106075 445.1948199118089 25.05213088906791
    vertex 448.17944776118304 444.69481988491697 25.052130889093068
  endloop
endfacet
facet normal 9.214476664634168e-12 -7.881154358268873e-12 1.0
  outer loop
    vertex 448.1794477686302 443.69481988491697 25.05213088909289
    vertex 447.18637576863017 444.24327891172646 25.052130889106955
    vertex 447.18637576863017 443.6948198819381 25.052130889095405
  endloop
endfacet
facet normal 9.214476664634168e-12 -7.881154358268873e-12 1.0
  outer loop
    vertex 447.18637576863017 444.24327891172646 25.052130889106955
    vertex 448.1794477686302 443.69481988491697 25.05213088909289
    vertex 448.17944776118304 444.69481988491697 25.052130889093068
  endloop
endfacet
facet normal 9.214476664634168e-12 -7.881154358268873e-12 1.0
  outer loop
    vertex 447.18637576863017 444.24327891172646 25.052130889106955
    vertex 448.17944776118304 444.69481988491697 25.052130889093068
    vertex 444.7364547539262 444.24327891172646 25.052130889125948
  endloop
endfacet
facet normal 9.214476664634168e-12 -7.881154358268873e-12 1.0
  outer loop
    vertex 444.7364547539262 444.24327891172646 25.052130889125948
    vertex 448.17944776118304 444.69481988491697 25.052130889093068
    vertex 444.73645475380386 445.1948199118089 25.05213088913732
  endloop
endfacet
facet normal 9.214476664634168e-12 -7.881154358268873e-12 1.0
  outer loop
    vertex 444.73645475380386 445.1948199118089 25.05213088913732
    vertex 448.17944776118304 444.69481988491697 25.052130889093068
    vertex 451.15331776106075 445.1948199118089 25.05213088906791
  endloop
endfacet
facet normal 9.933634853399975e-12 -1.1582301239179919e-12 1.0
  outer loop
    vertex 451.153317760831 425.19481991175377 -12.947869110931297
    vertex 450.3863760326526 425.6948199087753 -12.94786911091033
    vertex 448.18637603265256 425.694819893881 -12.947869110900617
  endloop
endfacet
facet normal 9.933634853399975e-12 -1.1582301239179919e-12 1.0
  outer loop
    vertex 450.3863760326526 425.6948199087753 -12.94786911091033
    vertex 451.153317760831 425.19481991175377 -12.947869110931297
    vertex 451.153317760831 426.6948199455188 -12.947869110931206
  endloop
endfacet
facet normal 9.933634853399975e-12 -1.1582301239179919e-12 1.0
  outer loop
    vertex 450.3863760326526 425.6948199087753 -12.94786911091033
    vertex 451.153317760831 426.6948199455188 -12.947869110931206
    vertex 450.3863760214818 426.69481994253994 -12.94786911091448
  endloop
endfacet
facet normal 9.933634853399975e-12 -1.1582301239179919e-12 1.0
  outer loop
    vertex 444.7364518034186 425.19481991175354 -12.94786911085855
    vertex 446.04188619994835 426.6948199455188 -12.947869110883028
    vertex 444.73645180340435 429.232192606455 -12.94786911086252
  endloop
endfacet
facet normal 9.933634853399975e-12 -1.1582301239179919e-12 1.0
  outer loop
    vertex 446.04188619994835 426.6948199455188 -12.947869110883028
    vertex 444.7364518034186 425.19481991175354 -12.94786911085855
    vertex 448.18637603265256 425.694819893881 -12.947869110900617
  endloop
endfacet
facet normal 9.933634853399975e-12 -1.1582301239179919e-12 1.0
  outer loop
    vertex 448.18637603265256 425.694819893881 -12.947869110900617
    vertex 444.7364518034186 425.19481991175354 -12.94786911085855
    vertex 451.153317760831 425.19481991175377 -12.947869110931297
  endloop
endfacet
facet normal 9.933634853399975e-12 -1.1582301239179919e-12 1.0
  outer loop
    vertex 446.04188619994835 426.6948199455188 -12.947869110883028
    vertex 448.18637603265256 425.694819893881 -12.947869110900617
    vertex 448.18637602148186 426.69481994253994 -12.947869110900347
  endloop
endfacet
facet normal 9.933634853399975e-12 -1.1582301239179919e-12 1.0
  outer loop
    vertex 444.73645180340435 429.232192606455 -12.94786911086252
    vertex 446.04188619994835 426.6948199455188 -12.947869110883028
    vertex 446.04188619994835 429.73324941027374 -12.947869110865701
  endloop
endfacet
facet normal 9.933634853399975e-12 -1.1582301239179919e-12 1.0
  outer loop
    vertex 444.73645180340435 429.232192606455 -12.94786911086252
    vertex 446.04188619994835 429.73324941027374 -12.947869110865701
    vertex 444.7418832497786 429.732163104975 -12.947869110859346
  endloop
endfacet
facet normal 9.933690912230282e-12 -1.1634305285511477e-12 1.0
  outer loop
    vertex 451.15331776120837 425.19481991170977 25.05213088906872
    vertex 450.38637603303 425.69481990873135 25.05213088908969
    vertex 448.18637603302994 425.69481989383695 25.0521308890994
  endloop
endfacet
facet normal 9.933690912230282e-12 -1.1634305285511477e-12 1.0
  outer loop
    vertex 450.38637603303 425.69481990873135 25.05213088908969
    vertex 451.15331776120837 425.19481991170977 25.05213088906872
    vertex 451.15331776120837 426.69481994547476 25.052130889068813
  endloop
endfacet
facet normal 9.933690912230282e-12 -1.1634305285511477e-12 1.0
  outer loop
    vertex 450.38637603303 425.69481990873135 25.05213088908969
    vertex 451.15331776120837 426.69481994547476 25.052130889068813
    vertex 450.3863760218592 426.6948199424959 25.05213088908554
  endloop
endfacet
facet normal 9.933690912230282e-12 -1.1634305285511477e-12 1.0
  outer loop
    vertex 444.73645180379606 425.19481991170954 25.05213088914147
    vertex 446.04188620032573 426.69481994547476 25.052130889116988
    vertex 444.73645180378173 429.232192606411 25.0521308891375
  endloop
endfacet
facet normal 9.933690912230282e-12 -1.1634305285511477e-12 1.0
  outer loop
    vertex 446.04188620032573 426.69481994547476 25.052130889116988
    vertex 444.73645180379606 425.19481991170954 25.05213088914147
    vertex 448.18637603302994 425.69481989383695 25.0521308890994
  endloop
endfacet
facet normal 9.933690912230282e-12 -1.1634305285511477e-12 1.0
  outer loop
    vertex 448.18637603302994 425.69481989383695 25.0521308890994
    vertex 444.73645180379606 425.19481991170954 25.05213088914147
    vertex 451.15331776120837 425.19481991170977 25.05213088906872
  endloop
endfacet
facet normal 9.933690912230282e-12 -1.1634305285511477e-12 1.0
  outer loop
    vertex 446.04188620032573 426.69481994547476 25.052130889116988
    vertex 448.18637603302994 425.69481989383695 25.0521308890994
    vertex 448.18637602185925 426.6948199424959 25.05213088909967
  endloop
endfacet
facet normal 9.933690912230282e-12 -1.1634305285511477e-12 1.0
  outer loop
    vertex 444.73645180378173 429.232192606411 25.0521308891375
    vertex 446.04188620032573 426.69481994547476 25.052130889116988
    vertex 446.04188620032573 429.73324941022975 25.052130889134315
  endloop
endfacet
facet normal 9.933690912230282e-12 -1.1634305285511477e-12 1.0
  outer loop
    vertex 444.73645180378173 429.232192606411 25.0521308891375
    vertex 446.04188620032573 429.73324941022975 25.052130889134315
    vertex 444.741883250156 429.7321631049309 25.05213088914067
  endloop
endfacet
facet normal -0.9999409970398928 0.010862892748487531 9.94563818504004e-12
  outer loop
    vertex 444.7418832497786 429.732163104975 -12.947869110859346
    vertex 444.73645180378173 429.232192606411 25.0521308891375
    vertex 444.741883250156 429.7321631049309 25.05213088914067
  endloop
endfacet
facet normal -0.9999409970398928 0.010862892748487531 9.94563818504004e-12
  outer loop
    vertex 444.73645180378173 429.232192606411 25.0521308891375
    vertex 444.7418832497786 429.732163104975 -12.947869110859346
    vertex 444.73645180340435 429.232192606455 -12.94786911086252
  endloop
endfacet
facet normal 1.0 3.5454120656610654e-12 -9.933642208625402e-12
  outer loop
    vertex 444.7364518034186 425.19481991175354 -12.94786911085855
    vertex 444.73645180378173 429.232192606411 25.0521308891375
    vertex 444.73645180379606 425.19481991170954 25.05213088914147
  endloop
endfacet
facet normal 1.0 3.5454120656610654e-12 -9.933642208625402e-12
  outer loop
    vertex 444.73645180378173 429.232192606411 25.0521308891375
    vertex 444.7364518034186 425.19481991175354 -12.94786911085855
    vertex 444.73645180340435 429.232192606455 -12.94786911086252
  endloop
endfacet
facet normal -3.164123857451752e-14 1.0 1.1582641278847238e-12
  outer loop
    vertex 444.73645180379606 425.19481991170954 25.05213088914147
    vertex 451.153317760831 425.19481991175377 -12.947869110931297
    vertex 444.7364518034186 425.19481991175354 -12.94786911085855
  endloop
endfacet
facet normal -3.164123857451752e-14 1.0 1.1582641278847238e-12
  outer loop
    vertex 451.153317760831 425.19481991175377 -12.947869110931297
    vertex 444.73645180379606 425.19481991170954 25.05213088914147
    vertex 451.15331776120837 425.19481991170977 25.05213088906872
  endloop
endfacet
facet normal 1.0 7.392176723858282e-25 -9.933635251475357e-12
  outer loop
    vertex 451.15331776120837 425.19481991170977 25.05213088906872
    vertex 451.153317760831 426.6948199455188 -12.947869110931206
    vertex 451.15331776120837 426.69481994547476 25.052130889068813
  endloop
endfacet
facet normal 1.0 7.392176723858282e-25 -9.933635251475357e-12
  outer loop
    vertex 451.153317760831 426.6948199455188 -12.947869110931206
    vertex 451.15331776120837 425.19481991170977 25.05213088906872
    vertex 451.153317760831 425.19481991175377 -12.947869110931297
  endloop
endfacet
facet normal -3.884083759001613e-09 1.0 1.158230162501062e-12
  outer loop
    vertex 450.3863760218592 426.6948199424959 25.05213088908554
    vertex 451.153317760831 426.6948199455188 -12.947869110931206
    vertex 450.3863760214818 426.69481994253994 -12.94786911091448
  endloop
endfacet
facet normal -3.884083759001613e-09 1.0 1.158230162501062e-12
  outer loop
    vertex 451.153317760831 426.6948199455188 -12.947869110931206
    vertex 450.3863760218592 426.6948199424959 25.05213088908554
    vertex 451.15331776120837 426.69481994547476 25.052130889068813
  endloop
endfacet
facet normal -1.0 -1.1170749769940104e-08 9.933634840461676e-12
  outer loop
    vertex 450.3863760218592 426.6948199424959 25.05213088908554
    vertex 450.3863760326526 425.6948199087753 -12.94786911091033
    vertex 450.38637603303 425.69481990873135 25.05213088908969
  endloop
endfacet
facet normal -1.0 -1.1170749769940104e-08 9.933634840461676e-12
  outer loop
    vertex 450.3863760326526 425.6948199087753 -12.94786911091033
    vertex 450.3863760218592 426.6948199424959 25.05213088908554
    vertex 450.3863760214818 426.69481994253994 -12.94786911091448
  endloop
endfacet
facet normal -6.77014989524206e-09 1.0 1.158230191170189e-12
  outer loop
    vertex 448.18637603302994 425.69481989383695 25.0521308890994
    vertex 450.3863760326526 425.6948199087753 -12.94786911091033
    vertex 448.18637603265256 425.694819893881 -12.947869110900617
  endloop
endfacet
facet normal -6.77014989524206e-09 1.0 1.158230191170189e-12
  outer loop
    vertex 450.3863760326526 425.6948199087753 -12.94786911091033
    vertex 448.18637603302994 425.69481989383695 25.0521308890994
    vertex 450.38637603303 425.69481990873135 25.05213088908969
  endloop
endfacet
facet normal 1.0 1.1170749603559334e-08 -9.933634840461676e-12
  outer loop
    vertex 448.18637603302994 425.69481989383695 25.0521308890994
    vertex 448.18637602148186 426.69481994253994 -12.947869110900347
    vertex 448.18637602185925 426.6948199424959 25.05213088909967
  endloop
endfacet
facet normal 1.0 1.1170749603559334e-08 -9.933634840461676e-12
  outer loop
    vertex 448.18637602148186 426.69481994253994 -12.947869110900347
    vertex 448.18637603302994 425.69481989383695 25.0521308890994
    vertex 448.18637603265256 425.694819893881 -12.947869110900617
  endloop
endfacet
facet normal 1.3890790825840218e-09 1.0 1.1582301101193876e-12
  outer loop
    vertex 446.04188620032573 426.69481994547476 25.052130889116988
    vertex 448.18637602148186 426.69481994253994 -12.947869110900347
    vertex 446.04188619994835 426.6948199455188 -12.947869110883028
  endloop
endfacet
facet normal 1.3890790825840218e-09 1.0 1.1582301101193876e-12
  outer loop
    vertex 448.18637602148186 426.69481994253994 -12.947869110900347
    vertex 446.04188620032573 426.69481994547476 25.052130889116988
    vertex 448.18637602185925 426.6948199424959 25.05213088909967
  endloop
endfacet
facet normal 1.0 6.913685572914565e-23 -9.933634853399977e-12
  outer loop
    vertex 446.04188620032573 426.69481994547476 25.052130889116988
    vertex 446.04188619994835 429.73324941027374 -12.947869110865701
    vertex 446.04188620032573 429.73324941022975 25.052130889134315
  endloop
endfacet
facet normal 1.0 6.913685572914565e-23 -9.933634853399977e-12
  outer loop
    vertex 446.04188619994835 429.73324941027374 -12.947869110865701
    vertex 446.04188620032573 426.69481994547476 25.052130889116988
    vertex 446.04188619994835 426.6948199455188 -12.947869110883028
  endloop
endfacet
facet normal -0.0008356172725414218 0.9999996508718261 1.1665304364098443e-12
  outer loop
    vertex 444.741883250156 429.7321631049309 25.05213088914067
    vertex 446.04188619994835 429.73324941027374 -12.947869110865701
    vertex 444.7418832497786 429.732163104975 -12.947869110859346
  endloop
endfacet
facet normal -0.0008356172725414218 0.9999996508718261 1.1665304364098443e-12
  outer loop
    vertex 446.04188619994835 429.73324941027374 -12.947869110865701
    vertex 444.741883250156 429.7321631049309 25.05213088914067
    vertex 446.04188620032573 429.73324941022975 25.052130889134315
  endloop
endfacet
facet normal 7.510307078881029e-12 1.476927271855875e-11 1.0
  outer loop
    vertex 442.3364547538572 445.1948199125388 28.0521308891386
    vertex 440.45645476111525 443.85549191258144 28.052130889170947
    vertex 442.3364547538583 443.85549191258144 28.05213088912795
  endloop
endfacet
facet normal 7.510307078881029e-12 1.476927271855875e-11 1.0
  outer loop
    vertex 440.45645476111525 443.85549191258144 28.052130889170947
    vertex 442.3364547538572 445.1948199125388 28.0521308891386
    vertex 440.45645476111525 444.8554919125815 28.052130889170947
  endloop
endfacet
facet normal 7.510307078881029e-12 1.476927271855875e-11 1.0
  outer loop
    vertex 440.45645476111525 444.8554919125815 28.052130889170947
    vertex 442.3364547538572 445.1948199125388 28.0521308891386
    vertex 439.0564547611152 444.8554919125815 28.052130889183484
  endloop
endfacet
facet normal 7.510307078881029e-12 1.476927271855875e-11 1.0
  outer loop
    vertex 439.0564547611152 444.8554919125815 28.052130889183484
    vertex 437.95645476111525 443.6632486657101 28.052130889194515
    vertex 439.0564547611152 443.6632486657101 28.052130889183484
  endloop
endfacet
facet normal 7.510307078881029e-12 1.476927271855875e-11 1.0
  outer loop
    vertex 437.95645476111525 443.6632486657101 28.052130889194515
    vertex 439.0564547611152 444.8554919125815 28.052130889183484
    vertex 437.95645476111525 445.19481991258147 28.052130889131888
  endloop
endfacet
facet normal 7.510307078881029e-12 1.476927271855875e-11 1.0
  outer loop
    vertex 437.95645476111525 445.19481991258147 28.052130889131888
    vertex 439.0564547611152 444.8554919125815 28.052130889183484
    vertex 442.3364547538572 445.1948199125388 28.0521308891386
  endloop
endfacet
facet normal 4.61591368928337e-22 -1.0 2.0187821535983057e-11
  outer loop
    vertex 442.33645475357406 443.8554919117538 -12.947869110872015
    vertex 440.45645476111525 443.85549191258144 28.052130889170947
    vertex 440.456454760831 443.8554919117538 -12.947869110829034
  endloop
endfacet
facet normal 4.61591368928337e-22 -1.0 2.0187821535983057e-11
  outer loop
    vertex 440.45645476111525 443.85549191258144 28.052130889170947
    vertex 442.33645475357406 443.8554919117538 -12.947869110872015
    vertex 442.3364547538583 443.85549191258144 28.05213088912795
  endloop
endfacet
facet normal 1.0 8.190428049314753e-13 -6.932763925795201e-12
  outer loop
    vertex 442.3364547538583 443.85549191258144 28.05213088912795
    vertex 442.336454753573 445.194819911711 -12.947869110861367
    vertex 442.3364547538572 445.1948199125388 28.0521308891386
  endloop
endfacet
facet normal 1.0 8.190428049314753e-13 -6.932763925795201e-12
  outer loop
    vertex 442.336454753573 445.194819911711 -12.947869110861367
    vertex 442.3364547538583 443.85549191258144 28.05213088912795
    vertex 442.33645475357406 443.8554919117538 -12.947869110872015
  endloop
endfacet
facet normal -9.746267736000905e-12 -1.0 2.0187830540111605e-11
  outer loop
    vertex 442.336454753573 445.194819911711 -12.947869110861367
    vertex 437.95645476111525 445.19481991258147 28.052130889131888
    vertex 437.95645476083104 445.1948199117537 -12.947869110868078
  endloop
endfacet
facet normal -9.746267736000905e-12 -1.0 2.0187830540111605e-11
  outer loop
    vertex 437.95645476111525 445.19481991258147 28.052130889131888
    vertex 442.336454753573 445.194819911711 -12.947869110861367
    vertex 442.3364547538572 445.1948199125388 28.0521308891386
  endloop
endfacet
facet normal 1.0 -3.730691496523257e-22 -6.9327639257786684e-12
  outer loop
    vertex 437.95645476083104 443.6632486648824 -12.947869110805453
    vertex 437.95645476111525 445.19481991258147 28.052130889131888
    vertex 437.95645476111525 443.6632486657101 28.052130889194515
  endloop
endfacet
facet normal 1.0 -3.730691496523257e-22 -6.9327639257786684e-12
  outer loop
    vertex 437.95645476111525 445.19481991258147 28.052130889131888
    vertex 437.95645476083104 443.6632486648824 -12.947869110805453
    vertex 437.95645476083104 445.1948199117537 -12.947869110868078
  endloop
endfacet
facet normal 2.0257675004089268e-22 -1.0 2.0187830540044035e-11
  outer loop
    vertex 439.05645476083095 443.6632486648824 -12.947869110816484
    vertex 437.95645476111525 443.6632486657101 28.052130889194515
    vertex 437.95645476083104 443.6632486648824 -12.947869110805453
  endloop
endfacet
facet normal 2.0257675004089268e-22 -1.0 2.0187830540044035e-11
  outer loop
    vertex 437.95645476111525 443.6632486657101 28.052130889194515
    vertex 439.05645476083095 443.6632486648824 -12.947869110816484
    vertex 439.0564547611152 443.6632486657101 28.052130889183484
  endloop
endfacet
facet normal 1.0 0.0 -6.9327570946160825e-12
  outer loop
    vertex 439.05645476083095 443.6632486648824 -12.947869110816484
    vertex 439.0564547611152 444.8554919125815 28.052130889183484
    vertex 439.0564547611152 443.6632486657101 28.052130889183484
  endloop
endfacet
facet normal 1.0 0.0 -6.9327570946160825e-12
  outer loop
    vertex 439.0564547611152 444.8554919125815 28.052130889183484
    vertex 439.05645476083095 443.6632486648824 -12.947869110816484
    vertex 439.05645476083095 444.85549191175375 -12.947869110816484
  endloop
endfacet
facet normal 1.8088477531460875e-22 -1.0 2.0187821535983057e-11
  outer loop
    vertex 440.456454760831 444.85549191175375 -12.947869110829034
    vertex 439.0564547611152 444.8554919125815 28.052130889183484
    vertex 439.05645476083095 444.85549191175375 -12.947869110816484
  endloop
endfacet
facet normal 1.8088477531460875e-22 -1.0 2.0187821535983057e-11
  outer loop
    vertex 439.0564547611152 444.8554919125815 28.052130889183484
    vertex 440.456454760831 444.85549191175375 -12.947869110829034
    vertex 440.45645476111525 444.8554919125815 28.052130889170947
  endloop
endfacet
facet normal -1.0 0.0 6.9327570946160825e-12
  outer loop
    vertex 440.456454760831 444.85549191175375 -12.947869110829034
    vertex 440.45645476111525 443.85549191258144 28.052130889170947
    vertex 440.45645476111525 444.8554919125815 28.052130889170947
  endloop
endfacet
facet normal -1.0 0.0 6.9327570946160825e-12
  outer loop
    vertex 440.45645476111525 443.85549191258144 28.052130889170947
    vertex 440.456454760831 444.85549191175375 -12.947869110829034
    vertex 440.456454760831 443.8554919117538 -12.947869110829034
  endloop
endfacet
facet normal 5.2472225392853944e-12 3.67787572582674e-12 1.0
  outer loop
    vertex 444.7364518036339 425.1948199119042 28.05213088914142
    vertex 440.4564547610463 425.45549191190435 28.052130889171305
    vertex 437.95645476104625 425.19481991190435 28.052130889135498
  endloop
endfacet
facet normal 5.2472225392853944e-12 3.67787572582674e-12 1.0
  outer loop
    vertex 440.4564547610463 425.45549191190435 28.052130889171305
    vertex 444.7364518036339 425.1948199119042 28.05213088914142
    vertex 444.73645180361956 429.2321926066056 28.052130889137448
  endloop
endfacet
facet normal 5.2472225392853944e-12 3.67787572582674e-12 1.0
  outer loop
    vertex 440.4564547610463 425.45549191190435 28.052130889171305
    vertex 444.73645180361956 429.2321926066056 28.052130889137448
    vertex 441.53645475378937 426.4554919119044 28.052130889151556
  endloop
endfacet
facet normal 5.2472225392853944e-12 3.67787572582674e-12 1.0
  outer loop
    vertex 441.53645475378937 426.4554919119044 28.052130889151556
    vertex 444.73645180361956 429.2321926066056 28.052130889137448
    vertex 442.3364547537894 429.2332789119044 28.052130889125966
  endloop
endfacet
facet normal 5.2472225392853944e-12 3.67787572582674e-12 1.0
  outer loop
    vertex 441.53645475378937 426.4554919119044 28.052130889151556
    vertex 442.3364547537894 429.2332789119044 28.052130889125966
    vertex 441.53645475378937 429.7332494104243 28.05213088914136
  endloop
endfacet
facet normal 5.2472225392853944e-12 3.67787572582674e-12 1.0
  outer loop
    vertex 441.53645475378937 429.7332494104243 28.05213088914136
    vertex 442.3364547537894 429.2332789119044 28.052130889125966
    vertex 442.3364547537894 429.7332494104243 28.052130889132375
  endloop
endfacet
facet normal 5.2472225392853944e-12 3.67787572582674e-12 1.0
  outer loop
    vertex 440.4564547610463 426.4554919119044 28.052130889171938
    vertex 440.4564547610463 425.45549191190435 28.052130889171305
    vertex 441.53645475378937 426.4554919119044 28.052130889151556
  endloop
endfacet
facet normal 5.2472225392853944e-12 3.67787572582674e-12 1.0
  outer loop
    vertex 437.95645476104625 425.19481991190435 28.052130889135498
    vertex 439.05645476104627 425.45549191190435 28.052130889183484
    vertex 437.95645476104625 426.66324866503294 28.052130889194515
  endloop
endfacet
facet normal 5.2472225392853944e-12 3.67787572582674e-12 1.0
  outer loop
    vertex 439.05645476104627 425.45549191190435 28.052130889183484
    vertex 437.95645476104625 425.19481991190435 28.052130889135498
    vertex 440.4564547610463 425.45549191190435 28.052130889171305
  endloop
endfacet
facet normal 5.2472225392853944e-12 3.67787572582674e-12 1.0
  outer loop
    vertex 437.95645476104625 426.66324866503294 28.052130889194515
    vertex 439.05645476104627 425.45549191190435 28.052130889183484
    vertex 439.05645476104627 426.66324866503294 28.052130889183484
  endloop
endfacet
facet normal 8.077879094339863e-12 1.0 -2.536603106720239e-12
  outer loop
    vertex 437.95645476104625 425.19481991190435 28.052130889135498
    vertex 444.7364518034186 425.19481991175354 -12.94786911085855
    vertex 437.95645476083104 425.19481991175377 -12.947869110864469
  endloop
endfacet
facet normal 8.077879094339863e-12 1.0 -2.536603106720239e-12
  outer loop
    vertex 444.7364518034186 425.19481991175354 -12.94786911085855
    vertex 437.95645476104625 425.19481991190435 28.052130889135498
    vertex 444.7364518036339 425.1948199119042 28.05213088914142
  endloop
endfacet
facet normal 8.077879094339863e-12 1.0 -2.536603106720239e-12
  outer loop
    vertex 444.7364518034186 425.19481991175354 -12.94786911085855
    vertex 444.7364518036339 425.1948199119042 28.05213088914142
    vertex 444.73645180379606 425.19481991170954 25.05213088914147
  endloop
endfacet
facet normal 1.0 3.5454120670969992e-12 -7.238010149094118e-12
  outer loop
    vertex 444.73645180379606 425.19481991170954 25.05213088914147
    vertex 444.73645180361956 429.2321926066056 28.052130889137448
    vertex 444.7364518036339 425.1948199119042 28.05213088914142
  endloop
endfacet
facet normal 1.0 3.5454120670969992e-12 -7.238010149094118e-12
  outer loop
    vertex 444.73645180361956 429.2321926066056 28.052130889137448
    vertex 444.73645180379606 425.19481991170954 25.05213088914147
    vertex 444.73645180378173 429.232192606411 25.0521308891375
  endloop
endfacet
facet normal 0.0004526277405705934 0.999999897564059 -2.5394779138818824e-12
  outer loop
    vertex 442.3364547537894 429.2332789119044 28.052130889125966
    vertex 444.73645180340435 429.232192606455 -12.94786911086252
    vertex 442.33645475357406 429.23327891175376 -12.947869110874
  endloop
endfacet
facet normal 0.0004526277405705934 0.999999897564059 -2.5394779138818824e-12
  outer loop
    vertex 444.73645180340435 429.232192606455 -12.94786911086252
    vertex 442.3364547537894 429.2332789119044 28.052130889125966
    vertex 444.73645180361956 429.2321926066056 28.052130889137448
  endloop
endfacet
facet normal 0.0004526277405705934 0.999999897564059 -2.5394779138818824e-12
  outer loop
    vertex 444.73645180340435 429.232192606455 -12.94786911086252
    vertex 444.73645180361956 429.2321926066056 28.052130889137448
    vertex 444.73645180378173 429.232192606411 25.0521308891375
  endloop
endfacet
facet normal 1.0 9.536066050719724e-23 -5.250655564633379e-12
  outer loop
    vertex 442.3364547537894 429.2332789119044 28.052130889125966
    vertex 442.33645475357406 429.73324941027374 -12.947869110867593
    vertex 442.3364547537894 429.7332494104243 28.052130889132375
  endloop
endfacet
facet normal 1.0 9.536066050719724e-23 -5.250655564633379e-12
  outer loop
    vertex 442.33645475357406 429.73324941027374 -12.947869110867593
    vertex 442.3364547537894 429.2332789119044 28.052130889125966
    vertex 442.33645475357406 429.23327891175376 -12.947869110874
  endloop
endfacet
facet normal -4.125163538138221e-23 1.0 -3.6726291138932344e-12
  outer loop
    vertex 441.53645475378937 429.7332494104243 28.05213088914136
    vertex 442.33645475357406 429.73324941027374 -12.947869110867593
    vertex 441.53645475357405 429.73324941027374 -12.947869110858612
  endloop
endfacet
facet normal -4.125163538138221e-23 1.0 -3.6726291138932344e-12
  outer loop
    vertex 442.33645475357406 429.73324941027374 -12.947869110867593
    vertex 441.53645475378937 429.7332494104243 28.05213088914136
    vertex 442.3364547537894 429.7332494104243 28.052130889132375
  endloop
endfacet
facet normal -1.0 2.3150314993371348e-23 5.250655564633381e-12
  outer loop
    vertex 441.53645475378937 429.7332494104243 28.05213088914136
    vertex 441.53645475357405 426.45549191175377 -12.947869110848416
    vertex 441.53645475378937 426.4554919119044 28.052130889151556
  endloop
endfacet
facet normal -1.0 2.3150314993371348e-23 5.250655564633381e-12
  outer loop
    vertex 441.53645475357405 426.45549191175377 -12.947869110848416
    vertex 441.53645475378937 429.7332494104243 28.05213088914136
    vertex 441.53645475357405 429.73324941027374 -12.947869110858612
  endloop
endfacet
facet normal -6.928374621850567e-23 1.0 -3.672629113893236e-12
  outer loop
    vertex 440.4564547610463 426.4554919119044 28.052130889171938
    vertex 441.53645475357405 426.45549191175377 -12.947869110848416
    vertex 440.456454760831 426.45549191175377 -12.94786911082804
  endloop
endfacet
facet normal -6.928374621850567e-23 1.0 -3.672629113893236e-12
  outer loop
    vertex 441.53645475357405 426.45549191175377 -12.947869110848416
    vertex 440.4564547610463 426.4554919119044 28.052130889171938
    vertex 441.53645475378937 426.4554919119044 28.052130889151556
  endloop
endfacet
facet normal -1.0 -4.7006002649412184e-24 5.250655564633381e-12
  outer loop
    vertex 440.456454760831 426.45549191175377 -12.94786911082804
    vertex 440.4564547610463 425.45549191190435 28.052130889171305
    vertex 440.4564547610463 426.4554919119044 28.052130889171938
  endloop
endfacet
facet normal -1.0 -4.7006002649412184e-24 5.250655564633381e-12
  outer loop
    vertex 440.4564547610463 425.45549191190435 28.052130889171305
    vertex 440.456454760831 426.45549191175377 -12.94786911082804
    vertex 440.456454760831 425.4554919117538 -12.947869110828671
  endloop
endfacet
facet normal -3.196020402350045e-23 1.0 -3.672629113893235e-12
  outer loop
    vertex 439.05645476104627 425.45549191190435 28.052130889183484
    vertex 440.456454760831 425.4554919117538 -12.947869110828671
    vertex 439.05645476083095 425.4554919117538 -12.947869110816484
  endloop
endfacet
facet normal -3.196020402350045e-23 1.0 -3.672629113893235e-12
  outer loop
    vertex 440.456454760831 425.4554919117538 -12.947869110828671
    vertex 439.05645476104627 425.45549191190435 28.052130889183484
    vertex 440.4564547610463 425.45549191190435 28.052130889171305
  endloop
endfacet
facet normal 1.0 0.0 -5.250655564633381e-12
  outer loop
    vertex 439.05645476083095 425.4554919117538 -12.947869110816484
    vertex 439.05645476104627 426.66324866503294 28.052130889183484
    vertex 439.05645476104627 425.45549191190435 28.052130889183484
  endloop
endfacet
facet normal 1.0 0.0 -5.250655564633381e-12
  outer loop
    vertex 439.05645476104627 426.66324866503294 28.052130889183484
    vertex 439.05645476083095 425.4554919117538 -12.947869110816484
    vertex 439.05645476083095 426.66324866488236 -12.947869110816484
  endloop
endfacet
facet normal -3.684765334091946e-23 1.0 -3.672696835002261e-12
  outer loop
    vertex 437.95645476104625 426.66324866503294 28.052130889194515
    vertex 439.05645476083095 426.66324866488236 -12.947869110816484
    vertex 437.95645476083104 426.66324866488236 -12.947869110805453
  endloop
endfacet
facet normal -3.684765334091946e-23 1.0 -3.672696835002261e-12
  outer loop
    vertex 439.05645476083095 426.66324866488236 -12.947869110816484
    vertex 437.95645476104625 426.66324866503294 28.052130889194515
    vertex 439.05645476104627 426.66324866503294 28.052130889183484
  endloop
endfacet
facet normal 1.0 2.990756040826281e-22 -5.250688308773998e-12
  outer loop
    vertex 437.95645476104625 425.19481991190435 28.052130889135498
    vertex 437.95645476083104 426.66324866488236 -12.947869110805453
    vertex 437.95645476104625 426.66324866503294 28.052130889194515
  endloop
endfacet
facet normal 1.0 2.990756040826281e-22 -5.250688308773998e-12
  outer loop
    vertex 437.95645476083104 426.66324866488236 -12.947869110805453
    vertex 437.95645476104625 425.19481991190435 28.052130889135498
    vertex 437.95645476083104 425.19481991175377 -12.947869110864469
  endloop
endfacet
facet normal 0.0 -1.0 0.0
  outer loop
    vertex 436.95645476112685 437.1632486648824 30.052130889192323
    vertex 437.95645476112526 437.1632486648824 32.05213088919451
    vertex 436.95645476112236 437.1632486648824 32.05213088919232
  endloop
endfacet
facet normal 0.0 -1.0 0.0
  outer loop
    vertex 437.95645476112526 437.1632486648824 32.05213088919451
    vertex 436.95645476112685 437.1632486648824 30.052130889192323
    vertex 437.9564547611297 437.1632486648824 30.052130889194512
  endloop
endfacet
facet normal 0.0 1.0 0.0
  outer loop
    vertex 437.95645476112526 433.1632486648824 32.05213088919451
    vertex 436.95645476112685 433.1632486648824 30.052130889192323
    vertex 436.95645476112236 433.1632486648824 32.05213088919232
  endloop
endfacet
facet normal 0.0 1.0 0.0
  outer loop
    vertex 436.95645476112685 433.1632486648824 30.052130889192323
    vertex 437.95645476112526 433.1632486648824 32.05213088919451
    vertex 437.9564547611297 433.1632486648824 30.052130889194512
  endloop
endfacet
facet normal -2.1908593403183783e-12 0.0 1.0
  outer loop
    vertex 437.9564547611297 437.1632486648824 30.052130889194512
    vertex 436.95645476112685 433.1632486648824 30.052130889192323
    vertex 437.9564547611297 433.1632486648824 30.052130889194512
  endloop
endfacet
facet normal -2.1908593403183783e-12 0.0 1.0
  outer loop
    vertex 436.95645476112685 433.1632486648824 30.052130889192323
    vertex 437.9564547611297 437.1632486648824 30.052130889194512
    vertex 436.95645476112685 437.1632486648824 30.052130889192323
  endloop
endfacet
endsolid model
