solid model
facet normal 6.114458377104615e-55 1.0 9.556472943588696e-44
  outer loop
    vertex 439.2053139181965 158.45708676056998 32.03423664860659
    vertex 440.2053139179077 158.45708676056998 -12.965763351399723
    vertex 439.20531391790763 158.45708676056998 -12.965763351393377
  endloop
endfacet
facet normal 6.114458377104615e-55 1.0 9.556472943588696e-44
  outer loop
    vertex 440.2053139179077 158.45708676056998 -12.965763351399723
    vertex 439.2053139181965 158.45708676056998 32.03423664860659
    vertex 440.20531391819657 158.45708676056998 32.03423664860024
  endloop
endfacet
facet normal 1.0 7.17317836756624e-24 -6.418797453162786e-12
  outer loop
    vertex 451.4021769181965 157.69641476056998 32.03423664852832
    vertex 451.40217691790764 159.19641476056998 -12.965763351467944
    vertex 451.4021769181965 159.19641476056998 32.03423664853202
  endloop
endfacet
facet normal 1.0 7.17317836756624e-24 -6.418797453162786e-12
  outer loop
    vertex 451.40217691790764 159.19641476056998 -12.965763351467944
    vertex 451.4021769181965 157.69641476056998 32.03423664852832
    vertex 451.40217691790764 157.69641476056998 -12.965763351471644
  endloop
endfacet
facet normal 1.0 0.0 -6.418797453162786e-12
  outer loop
    vertex 439.20531391790763 158.45708676056998 -12.965763351393377
    vertex 439.2053139181965 158.65708676057 32.03423664860659
    vertex 439.2053139181965 158.45708676056998 32.03423664860659
  endloop
endfacet
facet normal 1.0 0.0 -6.418797453162786e-12
  outer loop
    vertex 439.2053139181965 158.65708676057 32.03423664860659
    vertex 439.20531391790763 158.45708676056998 -12.965763351393377
    vertex 439.20531391790763 158.65708676057 -12.965763351393377
  endloop
endfacet
facet normal 6.148953011846751e-55 1.0 9.556472943588694e-44
  outer loop
    vertex 451.4021769181965 157.69641476056998 32.03423664852832
    vertex 453.90217691790775 157.69641476056998 -12.965763351487768
    vertex 451.40217691790764 157.69641476056998 -12.965763351471644
  endloop
endfacet
facet normal 6.148953011846751e-55 1.0 9.556472943588694e-44
  outer loop
    vertex 453.90217691790775 157.69641476056998 -12.965763351487768
    vertex 451.4021769181965 157.69641476056998 32.03423664852832
    vertex 453.9021769181965 157.69641476056998 32.03423664851219
  endloop
endfacet
facet normal 5.090802315070526e-56 1.0 9.556472943588694e-44
  outer loop
    vertex 445.1853139109396 162.6126987514676 32.03423664856822
    vertex 446.1853139106508 162.6126987514676 -12.965763351432406
    vertex 445.1853139106508 162.6126987514676 -12.965763351431747
  endloop
endfacet
facet normal 5.090802315070526e-56 1.0 9.556472943588694e-44
  outer loop
    vertex 446.1853139106508 162.6126987514676 -12.965763351432406
    vertex 445.1853139109396 162.6126987514676 32.03423664856822
    vertex 446.18531391093967 162.6126987514676 32.03423664856756
  endloop
endfacet
facet normal -6.114458377104615e-55 -1.0 -9.556472943588696e-44
  outer loop
    vertex 440.2053139179077 176.85708676056998 -12.965763351399723
    vertex 439.2053139181965 176.85708676056998 32.03423664860659
    vertex 439.20531391790763 176.85708676056998 -12.965763351393377
  endloop
endfacet
facet normal -6.114458377104615e-55 -1.0 -9.556472943588696e-44
  outer loop
    vertex 439.2053139181965 176.85708676056998 32.03423664860659
    vertex 440.2053139179077 176.85708676056998 -12.965763351399723
    vertex 440.20531391819657 176.85708676056998 32.03423664860024
  endloop
endfacet
facet normal -5.953168183623995e-56 -1.0 -9.556472943588694e-44
  outer loop
    vertex 441.20531391790774 176.65708676056997 -12.965763351400467
    vertex 440.20531391819657 176.65708676056997 32.03423664860024
    vertex 440.2053139179077 176.65708676056997 -12.965763351399723
  endloop
endfacet
facet normal -5.953168183623995e-56 -1.0 -9.556472943588694e-44
  outer loop
    vertex 440.20531391819657 176.65708676056997 32.03423664860024
    vertex 441.20531391790774 176.65708676056997 -12.965763351400467
    vertex 441.2053139181965 176.65708676056997 32.034236648599496
  endloop
endfacet
facet normal -1.699448042901305e-54 -1.0 -9.556472943588694e-44
  outer loop
    vertex 442.1853043859461 177.69641476056998 -12.965763351417776
    vertex 441.2053139181965 177.69641476056998 32.034236648599496
    vertex 441.20531391790774 177.69641476056998 -12.965763351400467
  endloop
endfacet
facet normal -1.699448042901305e-54 -1.0 -9.556472943588694e-44
  outer loop
    vertex 441.2053139181965 177.69641476056998 32.034236648599496
    vertex 442.1853043859461 177.69641476056998 -12.965763351417776
    vertex 442.185304386235 177.69641476056998 32.03423664858219
  endloop
endfacet
facet normal 5.477634351095838e-55 1.0 9.556472943588694e-44
  outer loop
    vertex 437.9053139181965 158.65708676057 32.03423664861403
    vertex 439.20531391790763 158.65708676057 -12.965763351393377
    vertex 437.9053139179077 158.65708676057 -12.965763351385927
  endloop
endfacet
facet normal 5.477634351095838e-55 1.0 9.556472943588694e-44
  outer loop
    vertex 439.20531391790763 158.65708676057 -12.965763351393377
    vertex 437.9053139181965 158.65708676057 32.03423664861403
    vertex 439.2053139181965 158.65708676057 32.03423664860659
  endloop
endfacet
facet normal 4.8037538168369635e-55 1.0 9.556472943588694e-44
  outer loop
    vertex 446.18531391093967 159.19641476056998 32.034236648559975
    vertex 447.4352349179077 159.19641476056998 -12.965763351446196
    vertex 446.1853139106508 159.19641476056998 -12.965763351439985
  endloop
endfacet
facet normal 4.8037538168369635e-55 1.0 9.556472943588694e-44
  outer loop
    vertex 447.4352349179077 159.19641476056998 -12.965763351446196
    vertex 446.18531391093967 159.19641476056998 32.034236648559975
    vertex 447.43523491819656 159.19641476056998 32.034236648553765
  endloop
endfacet
facet normal 8.810724730245324e-55 1.0 9.556472943588694e-44
  outer loop
    vertex 441.2053139181965 157.69641476056998 32.034236648596696
    vertex 442.1853043859461 157.69641476056998 -12.965763351412182
    vertex 441.20531391790774 157.69641476056998 -12.965763351403265
  endloop
endfacet
facet normal 8.810724730245324e-55 1.0 9.556472943588694e-44
  outer loop
    vertex 442.1853043859461 157.69641476056998 -12.965763351412182
    vertex 441.2053139181965 157.69641476056998 32.034236648596696
    vertex 442.185304386235 157.69641476056998 32.03423664858778
  endloop
endfacet
facet normal 1.0 0.0 -6.418797453162786e-12
  outer loop
    vertex 447.4352349179077 158.69641476056998 -12.965763351446196
    vertex 447.43523491819656 159.19641476056998 32.034236648553765
    vertex 447.43523491819656 158.69641476056998 32.034236648553765
  endloop
endfacet
facet normal 1.0 0.0 -6.418797453162786e-12
  outer loop
    vertex 447.43523491819656 159.19641476056998 32.034236648553765
    vertex 447.4352349179077 158.69641476056998 -12.965763351446196
    vertex 447.4352349179077 159.19641476056998 -12.965763351446196
  endloop
endfacet
facet normal 6.157576670532288e-55 1.0 9.556472943588694e-44
  outer loop
    vertex 447.43523491819656 158.69641476056998 32.034236648553765
    vertex 449.4352349179077 158.69641476056998 -12.96576335145915
    vertex 447.4352349179077 158.69641476056998 -12.965763351446196
  endloop
endfacet
facet normal 6.157576670532288e-55 1.0 9.556472943588694e-44
  outer loop
    vertex 449.4352349179077 158.69641476056998 -12.96576335145915
    vertex 447.43523491819656 158.69641476056998 32.034236648553765
    vertex 449.43523491819656 158.69641476056998 32.03423664854081
  endloop
endfacet
facet normal -1.0 -1.6014129089990478e-25 6.418797453162786e-12
  outer loop
    vertex 442.1853043859461 162.6126987514676 -12.96576335141191
    vertex 442.185304386235 157.69641476056998 32.03423664858778
    vertex 442.185304386235 162.6126987514676 32.03423664858805
  endloop
endfacet
facet normal -1.0 -1.6014129089990478e-25 6.418797453162786e-12
  outer loop
    vertex 442.185304386235 157.69641476056998 32.03423664858778
    vertex 442.1853043859461 162.6126987514676 -12.96576335141191
    vertex 442.1853043859461 157.69641476056998 -12.965763351412182
  endloop
endfacet
facet normal -1.0 -0.0 6.418797453162786e-12
  outer loop
    vertex 440.2053139179077 158.65708676057 -12.965763351399723
    vertex 440.20531391819657 158.45708676056998 32.03423664860024
    vertex 440.20531391819657 158.65708676057 32.03423664860024
  endloop
endfacet
facet normal -1.0 -0.0 6.418797453162786e-12
  outer loop
    vertex 440.20531391819657 158.45708676056998 32.03423664860024
    vertex 440.2053139179077 158.65708676057 -12.965763351399723
    vertex 440.2053139179077 158.45708676056998 -12.965763351399723
  endloop
endfacet
facet normal 0.9999999908976365 0.00013492489486879378 -6.418797394736557e-12
  outer loop
    vertex 443.1852464484922 162.1126987560188 32.03423664858414
    vertex 443.18517898575595 162.6126987514676 -12.965763351412662
    vertex 443.18517898604483 162.6126987514676 32.0342366485873
  endloop
endfacet
facet normal 0.9999999908976365 0.00013492489486879378 -6.418797394736557e-12
  outer loop
    vertex 443.18517898575595 162.6126987514676 -12.965763351412662
    vertex 443.1852464484922 162.1126987560188 32.03423664858414
    vertex 443.1852464482033 162.1126987560188 -12.96576335141582
  endloop
endfacet
facet normal -3.354887597733507e-55 -1.0 -9.556472943588694e-44
  outer loop
    vertex 439.20531391790763 176.65708676056997 -12.965763351393377
    vertex 437.9053139181965 176.65708676056997 32.03423664861115
    vertex 437.9053139179077 176.65708676056997 -12.965763351388816
  endloop
endfacet
facet normal -3.354887597733507e-55 -1.0 -9.556472943588694e-44
  outer loop
    vertex 437.9053139181965 176.65708676056997 32.03423664861115
    vertex 439.20531391790763 176.65708676056997 -12.965763351393377
    vertex 439.2053139181965 176.65708676056997 32.03423664860659
  endloop
endfacet
facet normal 4.2755900505573794e-55 1.0 9.556472943588696e-44
  outer loop
    vertex 449.43523491819656 159.19641476056998 32.03423664854072
    vertex 451.40217691790764 159.19641476056998 -12.965763351467944
    vertex 449.4352349179077 159.19641476056998 -12.965763351459241
  endloop
endfacet
facet normal 4.2755900505573794e-55 1.0 9.556472943588696e-44
  outer loop
    vertex 451.40217691790764 159.19641476056998 -12.965763351467944
    vertex 449.43523491819656 159.19641476056998 32.03423664854072
    vertex 451.4021769181965 159.19641476056998 32.03423664853202
  endloop
endfacet
facet normal 6.157576670532287e-55 1.0 9.556472943588696e-44
  outer loop
    vertex 443.1853139109396 161.61269876057 32.03423664858099
    vertex 445.1853139106508 161.61269876057 -12.965763351431747
    vertex 443.1853139106508 161.61269876057 -12.965763351418971
  endloop
endfacet
facet normal 6.157576670532287e-55 1.0 9.556472943588696e-44
  outer loop
    vertex 445.1853139106508 161.61269876057 -12.965763351431747
    vertex 443.1853139109396 161.61269876057 32.03423664858099
    vertex 445.1853139109396 161.61269876057 32.03423664856822
  endloop
endfacet
facet normal 1.0 8.468482481262897e-24 -6.418797453162786e-12
  outer loop
    vertex 441.2053139181965 157.69641476056998 32.034236648596696
    vertex 441.20531391790774 158.65708676057 -12.965763351400467
    vertex 441.2053139181965 158.65708676057 32.034236648599496
  endloop
endfacet
facet normal 1.0 8.468482481262897e-24 -6.418797453162786e-12
  outer loop
    vertex 441.20531391790774 158.65708676057 -12.965763351400467
    vertex 441.2053139181965 157.69641476056998 32.034236648596696
    vertex 441.20531391790774 157.69641476056998 -12.965763351403265
  endloop
endfacet
facet normal 5.949707242616335e-56 1.0 9.556472943588694e-44
  outer loop
    vertex 442.185304386235 162.6126987514676 32.03423664858805
    vertex 443.18517898575595 162.6126987514676 -12.965763351412662
    vertex 442.1853043859461 162.6126987514676 -12.96576335141191
  endloop
endfacet
facet normal 5.949707242616335e-56 1.0 9.556472943588694e-44
  outer loop
    vertex 443.18517898575595 162.6126987514676 -12.965763351412662
    vertex 442.185304386235 162.6126987514676 32.03423664858805
    vertex 443.18517898604483 162.6126987514676 32.0342366485873
  endloop
endfacet
facet normal -1.0 5.248667098219238e-25 6.418797453162786e-12
  outer loop
    vertex 449.43523491819656 159.19641476056998 32.03423664854072
    vertex 449.4352349179077 158.69641476056998 -12.96576335145915
    vertex 449.43523491819656 158.69641476056998 32.03423664854081
  endloop
endfacet
facet normal -1.0 5.248667098219238e-25 6.418797453162786e-12
  outer loop
    vertex 449.4352349179077 158.69641476056998 -12.96576335145915
    vertex 449.43523491819656 159.19641476056998 32.03423664854072
    vertex 449.4352349179077 159.19641476056998 -12.965763351459241
  endloop
endfacet
facet normal 1.0 0.0 -6.418797453162786e-12
  outer loop
    vertex 441.20531391790774 176.65708676056997 -12.965763351400467
    vertex 441.2053139181965 177.69641476056998 32.034236648599496
    vertex 441.2053139181965 176.65708676056997 32.034236648599496
  endloop
endfacet
facet normal 1.0 0.0 -6.418797453162786e-12
  outer loop
    vertex 441.2053139181965 177.69641476056998 32.034236648599496
    vertex 441.20531391790774 176.65708676056997 -12.965763351400467
    vertex 441.20531391790774 177.69641476056998 -12.965763351400467
  endloop
endfacet
facet normal -1.0 -0.0 6.418797453162786e-12
  outer loop
    vertex 445.1853139106508 162.6126987514676 -12.965763351431747
    vertex 445.1853139109396 161.61269876057 32.03423664856822
    vertex 445.1853139109396 162.6126987514676 32.03423664856822
  endloop
endfacet
facet normal -1.0 -0.0 6.418797453162786e-12
  outer loop
    vertex 445.1853139109396 161.61269876057 32.03423664856822
    vertex 445.1853139106508 162.6126987514676 -12.965763351431747
    vertex 445.1853139106508 161.61269876057 -12.965763351431747
  endloop
endfacet
facet normal -6.157576670532288e-55 -1.0 -9.556472943588694e-44
  outer loop
    vertex 449.4352349179077 176.69641476056998 -12.96576335145915
    vertex 447.43523491819656 176.69641476056998 32.034236648553765
    vertex 447.4352349179077 176.69641476056998 -12.965763351446196
  endloop
endfacet
facet normal -6.157576670532288e-55 -1.0 -9.556472943588694e-44
  outer loop
    vertex 447.43523491819656 176.69641476056998 32.034236648553765
    vertex 449.4352349179077 176.69641476056998 -12.96576335145915
    vertex 449.43523491819656 176.69641476056998 32.03423664854081
  endloop
endfacet
facet normal -6.148953011846751e-55 -1.0 -9.556472943588694e-44
  outer loop
    vertex 453.90217691790775 177.69641476056998 -12.965763351487768
    vertex 451.4021769181965 177.69641476056998 32.03423664852832
    vertex 451.40217691790764 177.69641476056998 -12.965763351471644
  endloop
endfacet
facet normal -6.148953011846751e-55 -1.0 -9.556472943588694e-44
  outer loop
    vertex 451.4021769181965 177.69641476056998 32.03423664852832
    vertex 453.90217691790775 177.69641476056998 -12.965763351487768
    vertex 453.9021769181965 177.69641476056998 32.03423664851219
  endloop
endfacet
facet normal 0.9999999908976365 0.0001349248948673838 -6.418797394736557e-12
  outer loop
    vertex 443.1853139109396 161.61269876057 32.03423664858099
    vertex 443.1852464482033 162.1126987560188 -12.96576335141582
    vertex 443.1852464484922 162.1126987560188 32.03423664858414
  endloop
endfacet
facet normal 0.9999999908976365 0.0001349248948673838 -6.418797394736557e-12
  outer loop
    vertex 443.1852464482033 162.1126987560188 -12.96576335141582
    vertex 443.1853139109396 161.61269876057 32.03423664858099
    vertex 443.1853139106508 161.61269876057 -12.965763351418971
  endloop
endfacet
facet normal 1.0 0.0 -6.418797453162786e-12
  outer loop
    vertex 439.20531391790763 176.65708676056997 -12.965763351393377
    vertex 439.2053139181965 176.85708676056998 32.03423664860659
    vertex 439.2053139181965 176.65708676056997 32.03423664860659
  endloop
endfacet
facet normal 1.0 0.0 -6.418797453162786e-12
  outer loop
    vertex 439.2053139181965 176.85708676056998 32.03423664860659
    vertex 439.20531391790763 176.65708676056997 -12.965763351393377
    vertex 439.20531391790763 176.85708676056998 -12.965763351393377
  endloop
endfacet
facet normal -6.157576670532287e-55 -1.0 -9.556472943588696e-44
  outer loop
    vertex 445.1853139106508 177.12269876057 -12.965763351431747
    vertex 443.1853139109396 177.12269876057 32.03423664858099
    vertex 443.1853139106508 177.12269876057 -12.965763351418971
  endloop
endfacet
facet normal -6.157576670532287e-55 -1.0 -9.556472943588696e-44
  outer loop
    vertex 443.1853139109396 177.12269876057 32.03423664858099
    vertex 445.1853139106508 177.12269876057 -12.965763351431747
    vertex 445.1853139109396 177.12269876057 32.03423664856822
  endloop
endfacet
facet normal -1.0 -0.0 6.418797453162786e-12
  outer loop
    vertex 446.4352349179077 176.92269876056997 -12.965763351445633
    vertex 446.4352349181965 176.19641476056995 32.034236648554334
    vertex 446.4352349181965 176.92269876056997 32.034236648554334
  endloop
endfacet
facet normal -1.0 -0.0 6.418797453162786e-12
  outer loop
    vertex 446.4352349181965 176.19641476056995 32.034236648554334
    vertex 446.4352349179077 176.92269876056997 -12.965763351445633
    vertex 446.4352349179077 176.19641476056995 -12.965763351445633
  endloop
endfacet
facet normal 1.0 -5.7735338080411634e-24 -6.418797453162786e-12
  outer loop
    vertex 451.40217691790764 176.19641476056995 -12.965763351468665
    vertex 451.4021769181965 177.69641476056998 32.03423664852832
    vertex 451.4021769181965 176.19641476056995 32.0342366485313
  endloop
endfacet
facet normal 1.0 -5.7735338080411634e-24 -6.418797453162786e-12
  outer loop
    vertex 451.4021769181965 177.69641476056998 32.03423664852832
    vertex 451.40217691790764 176.19641476056995 -12.965763351468665
    vertex 451.40217691790764 177.69641476056998 -12.965763351471644
  endloop
endfacet
facet normal -5.953168183623995e-56 -1.0 -9.556472943588694e-44
  outer loop
    vertex 443.18530438594604 176.92269876056997 -12.96576335141852
    vertex 442.185304386235 176.92269876056997 32.03423664858219
    vertex 442.1853043859461 176.92269876056997 -12.965763351417776
  endloop
endfacet
facet normal -5.953168183623995e-56 -1.0 -9.556472943588694e-44
  outer loop
    vertex 442.185304386235 176.92269876056997 32.03423664858219
    vertex 443.18530438594604 176.92269876056997 -12.96576335141852
    vertex 443.1853043862349 176.92269876056997 32.03423664858144
  endloop
endfacet
facet normal -5.953168183623995e-56 -1.0 -9.556472943588694e-44
  outer loop
    vertex 447.4352349179077 176.19641476056995 -12.965763351446196
    vertex 446.4352349181965 176.19641476056995 32.034236648554334
    vertex 446.4352349179077 176.19641476056995 -12.965763351445633
  endloop
endfacet
facet normal -5.953168183623995e-56 -1.0 -9.556472943588694e-44
  outer loop
    vertex 446.4352349181965 176.19641476056995 32.034236648554334
    vertex 447.4352349179077 176.19641476056995 -12.965763351446196
    vertex 447.43523491819656 176.19641476056995 32.034236648553765
  endloop
endfacet
facet normal -1.0530225063769673e-54 -1.0 -9.556472943588694e-44
  outer loop
    vertex 446.4352349179077 176.92269876056997 -12.965763351445633
    vertex 445.1853139109396 176.92269876056997 32.03423664856822
    vertex 445.1853139106508 176.92269876056997 -12.965763351431747
  endloop
endfacet
facet normal -1.0530225063769673e-54 -1.0 -9.556472943588694e-44
  outer loop
    vertex 445.1853139109396 176.92269876056997 32.03423664856822
    vertex 446.4352349179077 176.92269876056997 -12.965763351445633
    vertex 446.4352349181965 176.92269876056997 32.034236648554334
  endloop
endfacet
facet normal 6.418797453162786e-12 -9.556472943588694e-44 1.0
  outer loop
    vertex 441.2053139181965 158.65708676057 32.034236648599496
    vertex 440.20531391819657 158.45708676056998 32.03423664860024
    vertex 441.2053139181965 157.69641476056998 32.034236648596696
  endloop
endfacet
facet normal 6.418797453162786e-12 -9.556472943588694e-44 1.0
  outer loop
    vertex 440.20531391819657 158.45708676056998 32.03423664860024
    vertex 441.2053139181965 158.65708676057 32.034236648599496
    vertex 440.20531391819657 158.65708676057 32.03423664860024
  endloop
endfacet
facet normal 6.418797453162786e-12 -9.556472943588694e-44 1.0
  outer loop
    vertex 439.2053139181965 176.85708676056998 32.03423664860659
    vertex 437.9053139181965 176.65708676056997 32.03423664861115
    vertex 439.2053139181965 176.65708676056997 32.03423664860659
  endloop
endfacet
facet normal 6.418797453162786e-12 -9.556472943588694e-44 1.0
  outer loop
    vertex 441.2053139181965 177.69641476056998 32.034236648599496
    vertex 440.20531391819657 176.65708676056997 32.03423664860024
    vertex 441.2053139181965 176.65708676056997 32.034236648599496
  endloop
endfacet
facet normal 6.418797453162786e-12 -9.556472943588694e-44 1.0
  outer loop
    vertex 440.20531391819657 176.65708676056997 32.03423664860024
    vertex 441.2053139181965 177.69641476056998 32.034236648599496
    vertex 440.20531391819657 176.85708676056998 32.03423664860024
  endloop
endfacet
facet normal 6.418797453162786e-12 -9.556472943588694e-44 1.0
  outer loop
    vertex 440.20531391819657 176.85708676056998 32.03423664860024
    vertex 441.2053139181965 177.69641476056998 32.034236648599496
    vertex 439.2053139181965 176.85708676056998 32.03423664860659
  endloop
endfacet
facet normal 6.418797453162786e-12 -9.556472943588694e-44 1.0
  outer loop
    vertex 451.4021769181965 177.69641476056998 32.03423664852832
    vertex 449.43523491819656 176.19641476056995 32.034236648538105
    vertex 451.4021769181965 176.19641476056995 32.0342366485313
  endloop
endfacet
facet normal 6.418797453162786e-12 -9.556472943588694e-44 1.0
  outer loop
    vertex 449.43523491819656 176.19641476056995 32.034236648538105
    vertex 451.4021769181965 177.69641476056998 32.03423664852832
    vertex 449.43523491819656 176.69641476056998 32.03423664854081
  endloop
endfacet
facet normal 6.418797453162786e-12 -9.556472943588694e-44 1.0
  outer loop
    vertex 449.43523491819656 176.69641476056998 32.03423664854081
    vertex 451.4021769181965 177.69641476056998 32.03423664852832
    vertex 447.43523491819656 176.69641476056998 32.034236648553765
  endloop
endfacet
facet normal 6.418797453162786e-12 -9.556472943588694e-44 1.0
  outer loop
    vertex 447.43523491819656 176.69641476056998 32.034236648553765
    vertex 451.4021769181965 177.69641476056998 32.03423664852832
    vertex 446.4352349181965 176.92269876056997 32.034236648554334
  endloop
endfacet
facet normal 6.418797453162786e-12 -9.556472943588694e-44 1.0
  outer loop
    vertex 446.4352349181965 176.92269876056997 32.034236648554334
    vertex 451.4021769181965 177.69641476056998 32.03423664852832
    vertex 445.1853139109396 176.92269876056997 32.03423664856822
  endloop
endfacet
facet normal 6.418797453162786e-12 -9.556472943588694e-44 1.0
  outer loop
    vertex 445.1853139109396 176.92269876056997 32.03423664856822
    vertex 451.4021769181965 177.69641476056998 32.03423664852832
    vertex 445.1853139109396 177.12269876057 32.03423664856822
  endloop
endfacet
facet normal 6.418797453162786e-12 -9.556472943588694e-44 1.0
  outer loop
    vertex 445.1853139109396 177.12269876057 32.03423664856822
    vertex 451.4021769181965 177.69641476056998 32.03423664852832
    vertex 443.1853139109396 177.12269876057 32.03423664858099
  endloop
endfacet
facet normal 6.418797453162786e-12 -9.556472943588694e-44 1.0
  outer loop
    vertex 454.9021769181965 156.69641476056998 32.03423664850585
    vertex 453.9021769181965 157.69641476056998 32.03423664851219
    vertex 436.9053139181965 156.69641476056998 32.034236648621274
  endloop
endfacet
facet normal 6.418797453162786e-12 -9.556472943588694e-44 1.0
  outer loop
    vertex 453.9021769181965 157.69641476056998 32.03423664851219
    vertex 454.9021769181965 156.69641476056998 32.03423664850585
    vertex 454.9021769181965 178.69641476056998 32.03423664850585
  endloop
endfacet
facet normal 6.418797453162786e-12 -9.556472943588694e-44 1.0
  outer loop
    vertex 453.9021769181965 157.69641476056998 32.03423664851219
    vertex 454.9021769181965 178.69641476056998 32.03423664850585
    vertex 453.9021769181965 177.69641476056998 32.03423664851219
  endloop
endfacet
facet normal 6.418797453162786e-12 -9.556472943588694e-44 1.0
  outer loop
    vertex 453.9021769181965 177.69641476056998 32.03423664851219
    vertex 454.9021769181965 178.69641476056998 32.03423664850585
    vertex 451.4021769181965 177.69641476056998 32.03423664852832
  endloop
endfacet
facet normal 6.418797453162786e-12 -9.556472943588694e-44 1.0
  outer loop
    vertex 451.4021769181965 177.69641476056998 32.03423664852832
    vertex 454.9021769181965 178.69641476056998 32.03423664850585
    vertex 442.185304386235 177.69641476056998 32.03423664858219
  endloop
endfacet
facet normal 6.418797453162786e-12 -9.556472943588694e-44 1.0
  outer loop
    vertex 442.185304386235 177.69641476056998 32.03423664858219
    vertex 454.9021769181965 178.69641476056998 32.03423664850585
    vertex 441.2053139181965 177.69641476056998 32.034236648599496
  endloop
endfacet
facet normal 6.418797453162786e-12 -9.556472943588694e-44 1.0
  outer loop
    vertex 436.9053139181965 156.69641476056998 32.034236648621274
    vertex 437.9053139181965 158.65708676057 32.03423664861403
    vertex 436.9053139181965 178.69641476056998 32.034236648621274
  endloop
endfacet
facet normal 6.418797453162786e-12 -9.556472943588694e-44 1.0
  outer loop
    vertex 437.9053139181965 158.65708676057 32.03423664861403
    vertex 436.9053139181965 156.69641476056998 32.034236648621274
    vertex 441.2053139181965 157.69641476056998 32.034236648596696
  endloop
endfacet
facet normal 6.418797453162786e-12 -9.556472943588694e-44 1.0
  outer loop
    vertex 441.2053139181965 157.69641476056998 32.034236648596696
    vertex 436.9053139181965 156.69641476056998 32.034236648621274
    vertex 453.9021769181965 157.69641476056998 32.03423664851219
  endloop
endfacet
facet normal 6.418797453162786e-12 -9.556472943588694e-44 1.0
  outer loop
    vertex 441.2053139181965 157.69641476056998 32.034236648596696
    vertex 453.9021769181965 157.69641476056998 32.03423664851219
    vertex 451.4021769181965 157.69641476056998 32.03423664852832
  endloop
endfacet
facet normal 6.418797453162786e-12 -9.556472943588694e-44 1.0
  outer loop
    vertex 441.2053139181965 157.69641476056998 32.034236648596696
    vertex 451.4021769181965 157.69641476056998 32.03423664852832
    vertex 442.185304386235 157.69641476056998 32.03423664858778
  endloop
endfacet
facet normal 6.418797453162786e-12 -9.556472943588694e-44 1.0
  outer loop
    vertex 437.9053139181965 158.65708676057 32.03423664861403
    vertex 441.2053139181965 157.69641476056998 32.034236648596696
    vertex 439.2053139181965 158.45708676056998 32.03423664860659
  endloop
endfacet
facet normal 6.418797453162786e-12 -9.556472943588694e-44 1.0
  outer loop
    vertex 439.2053139181965 158.45708676056998 32.03423664860659
    vertex 441.2053139181965 157.69641476056998 32.034236648596696
    vertex 440.20531391819657 158.45708676056998 32.03423664860024
  endloop
endfacet
facet normal 6.418797453162786e-12 -9.556472943588694e-44 1.0
  outer loop
    vertex 437.9053139181965 158.65708676057 32.03423664861403
    vertex 439.2053139181965 158.45708676056998 32.03423664860659
    vertex 439.2053139181965 158.65708676057 32.03423664860659
  endloop
endfacet
facet normal 6.418797453162786e-12 -9.556472943588694e-44 1.0
  outer loop
    vertex 436.9053139181965 178.69641476056998 32.034236648621274
    vertex 437.9053139181965 158.65708676057 32.03423664861403
    vertex 437.9053139181965 176.65708676056997 32.03423664861115
  endloop
endfacet
facet normal 6.418797453162786e-12 -9.556472943588694e-44 1.0
  outer loop
    vertex 436.9053139181965 178.69641476056998 32.034236648621274
    vertex 437.9053139181965 176.65708676056997 32.03423664861115
    vertex 439.2053139181965 176.85708676056998 32.03423664860659
  endloop
endfacet
facet normal 6.418797453162786e-12 -9.556472943588694e-44 1.0
  outer loop
    vertex 436.9053139181965 178.69641476056998 32.034236648621274
    vertex 439.2053139181965 176.85708676056998 32.03423664860659
    vertex 441.2053139181965 177.69641476056998 32.034236648599496
  endloop
endfacet
facet normal 6.418797453162786e-12 -9.556472943588694e-44 1.0
  outer loop
    vertex 436.9053139181965 178.69641476056998 32.034236648621274
    vertex 441.2053139181965 177.69641476056998 32.034236648599496
    vertex 454.9021769181965 178.69641476056998 32.03423664850585
  endloop
endfacet
facet normal 6.418797453162786e-12 -9.556472943588694e-44 1.0
  outer loop
    vertex 443.1853139109396 177.12269876057 32.03423664858099
    vertex 442.185304386235 176.92269876056997 32.03423664858219
    vertex 443.1853043862349 176.92269876056997 32.03423664858144
  endloop
endfacet
facet normal 6.418797453162786e-12 -9.556472943588694e-44 1.0
  outer loop
    vertex 442.185304386235 176.92269876056997 32.03423664858219
    vertex 443.1853139109396 177.12269876057 32.03423664858099
    vertex 442.185304386235 177.69641476056998 32.03423664858219
  endloop
endfacet
facet normal 6.418797453162786e-12 -9.556472943588694e-44 1.0
  outer loop
    vertex 442.185304386235 177.69641476056998 32.03423664858219
    vertex 443.1853139109396 177.12269876057 32.03423664858099
    vertex 451.4021769181965 177.69641476056998 32.03423664852832
  endloop
endfacet
facet normal 6.418797453162786e-12 -9.556472943588694e-44 1.0
  outer loop
    vertex 447.43523491819656 176.69641476056998 32.034236648553765
    vertex 446.4352349181965 176.19641476056995 32.034236648554334
    vertex 447.43523491819656 176.19641476056995 32.034236648553765
  endloop
endfacet
facet normal 6.418797453162786e-12 -9.556472943588694e-44 1.0
  outer loop
    vertex 446.4352349181965 176.19641476056995 32.034236648554334
    vertex 447.43523491819656 176.69641476056998 32.034236648553765
    vertex 446.4352349181965 176.92269876056997 32.034236648554334
  endloop
endfacet
facet normal 6.418797453162786e-12 -9.556472943588694e-44 1.0
  outer loop
    vertex 451.4021769181965 157.69641476056998 32.03423664852832
    vertex 449.43523491819656 158.69641476056998 32.03423664854081
    vertex 442.185304386235 157.69641476056998 32.03423664858778
  endloop
endfacet
facet normal 6.418797453162786e-12 -9.556472943588694e-44 1.0
  outer loop
    vertex 449.43523491819656 158.69641476056998 32.03423664854081
    vertex 451.4021769181965 157.69641476056998 32.03423664852832
    vertex 451.4021769181965 159.19641476056998 32.03423664853202
  endloop
endfacet
facet normal 6.418797453162786e-12 -9.556472943588694e-44 1.0
  outer loop
    vertex 449.43523491819656 158.69641476056998 32.03423664854081
    vertex 451.4021769181965 159.19641476056998 32.03423664853202
    vertex 449.43523491819656 159.19641476056998 32.03423664854072
  endloop
endfacet
facet normal 6.418797453162786e-12 -9.556472943588694e-44 1.0
  outer loop
    vertex 446.18531391093967 162.6126987514676 32.03423664856756
    vertex 445.1853139109396 161.61269876057 32.03423664856822
    vertex 446.18531391093967 159.19641476056998 32.034236648559975
  endloop
endfacet
facet normal 6.418797453162786e-12 -9.556472943588694e-44 1.0
  outer loop
    vertex 445.1853139109396 161.61269876057 32.03423664856822
    vertex 446.18531391093967 162.6126987514676 32.03423664856756
    vertex 445.1853139109396 162.6126987514676 32.03423664856822
  endloop
endfacet
facet normal 6.418797453162786e-12 -9.556472943588694e-44 1.0
  outer loop
    vertex 442.185304386235 157.69641476056998 32.03423664858778
    vertex 443.1853139109396 161.61269876057 32.03423664858099
    vertex 442.185304386235 162.6126987514676 32.03423664858805
  endloop
endfacet
facet normal 6.418797453162786e-12 -9.556472943588694e-44 1.0
  outer loop
    vertex 443.1853139109396 161.61269876057 32.03423664858099
    vertex 442.185304386235 157.69641476056998 32.03423664858778
    vertex 446.18531391093967 159.19641476056998 32.034236648559975
  endloop
endfacet
facet normal 6.418797453162786e-12 -9.556472943588694e-44 1.0
  outer loop
    vertex 446.18531391093967 159.19641476056998 32.034236648559975
    vertex 442.185304386235 157.69641476056998 32.03423664858778
    vertex 447.43523491819656 158.69641476056998 32.034236648553765
  endloop
endfacet
facet normal 6.418797453162786e-12 -9.556472943588694e-44 1.0
  outer loop
    vertex 447.43523491819656 158.69641476056998 32.034236648553765
    vertex 442.185304386235 157.69641476056998 32.03423664858778
    vertex 449.43523491819656 158.69641476056998 32.03423664854081
  endloop
endfacet
facet normal 6.418797453162786e-12 -9.556472943588694e-44 1.0
  outer loop
    vertex 446.18531391093967 159.19641476056998 32.034236648559975
    vertex 447.43523491819656 158.69641476056998 32.034236648553765
    vertex 447.43523491819656 159.19641476056998 32.034236648553765
  endloop
endfacet
facet normal 6.418797453162786e-12 -9.556472943588694e-44 1.0
  outer loop
    vertex 443.1853139109396 161.61269876057 32.03423664858099
    vertex 446.18531391093967 159.19641476056998 32.034236648559975
    vertex 445.1853139109396 161.61269876057 32.03423664856822
  endloop
endfacet
facet normal 6.418797453162786e-12 -9.556472943588694e-44 1.0
  outer loop
    vertex 442.185304386235 162.6126987514676 32.03423664858805
    vertex 443.1853139109396 161.61269876057 32.03423664858099
    vertex 443.1852464484922 162.1126987560188 32.03423664858414
  endloop
endfacet
facet normal 6.418797453162786e-12 -9.556472943588694e-44 1.0
  outer loop
    vertex 442.185304386235 162.6126987514676 32.03423664858805
    vertex 443.1852464484922 162.1126987560188 32.03423664858414
    vertex 443.18517898604483 162.6126987514676 32.0342366485873
  endloop
endfacet
facet normal -3.3548875977335074e-55 -1.0 -9.556472943588696e-44
  outer loop
    vertex 451.40217691790764 176.19641476056995 -12.965763351468665
    vertex 449.43523491819656 176.19641476056995 32.034236648538105
    vertex 449.4352349179077 176.19641476056995 -12.965763351461858
  endloop
endfacet
facet normal -3.3548875977335074e-55 -1.0 -9.556472943588696e-44
  outer loop
    vertex 449.43523491819656 176.19641476056995 32.034236648538105
    vertex 451.40217691790764 176.19641476056995 -12.965763351468665
    vertex 451.4021769181965 176.19641476056995 32.0342366485313
  endloop
endfacet
facet normal 5.953168183623995e-56 1.0 9.556472943588694e-44
  outer loop
    vertex 440.20531391819657 158.65708676057 32.03423664860024
    vertex 441.20531391790774 158.65708676057 -12.965763351400467
    vertex 440.2053139179077 158.65708676057 -12.965763351399723
  endloop
endfacet
facet normal 5.953168183623995e-56 1.0 9.556472943588694e-44
  outer loop
    vertex 441.20531391790774 158.65708676057 -12.965763351400467
    vertex 440.20531391819657 158.65708676057 32.03423664860024
    vertex 441.2053139181965 158.65708676057 32.034236648599496
  endloop
endfacet
facet normal 1.0 6.4527427670697105e-24 -6.418797453162786e-12
  outer loop
    vertex 446.18531391093967 159.19641476056998 32.034236648559975
    vertex 446.1853139106508 162.6126987514676 -12.965763351432406
    vertex 446.18531391093967 162.6126987514676 32.03423664856756
  endloop
endfacet
facet normal 1.0 6.4527427670697105e-24 -6.418797453162786e-12
  outer loop
    vertex 446.1853139106508 162.6126987514676 -12.965763351432406
    vertex 446.18531391093967 159.19641476056998 32.034236648559975
    vertex 446.1853139106508 159.19641476056998 -12.965763351439985
  endloop
endfacet
facet normal -1.0 -0.0 6.418797453162786e-12
  outer loop
    vertex 440.2053139179077 176.85708676056998 -12.965763351399723
    vertex 440.20531391819657 176.65708676056997 32.03423664860024
    vertex 440.20531391819657 176.85708676056998 32.03423664860024
  endloop
endfacet
facet normal -1.0 -0.0 6.418797453162786e-12
  outer loop
    vertex 440.20531391819657 176.65708676056997 32.03423664860024
    vertex 440.2053139179077 176.85708676056998 -12.965763351399723
    vertex 440.2053139179077 176.65708676056997 -12.965763351399723
  endloop
endfacet
facet normal -1.0 -0.0 6.418797453162786e-12
  outer loop
    vertex 442.1853043859461 177.69641476056998 -12.965763351417776
    vertex 442.185304386235 176.92269876056997 32.03423664858219
    vertex 442.185304386235 177.69641476056998 32.03423664858219
  endloop
endfacet
facet normal -1.0 -0.0 6.418797453162786e-12
  outer loop
    vertex 442.185304386235 176.92269876056997 32.03423664858219
    vertex 442.1853043859461 177.69641476056998 -12.965763351417776
    vertex 442.1853043859461 176.92269876056997 -12.965763351417776
  endloop
endfacet
facet normal 1.0 -4.665481865083759e-25 -6.418797453162786e-12
  outer loop
    vertex 437.9053139179077 158.65708676057 -12.965763351385927
    vertex 437.9053139181965 176.65708676056997 32.03423664861115
    vertex 437.9053139181965 158.65708676057 32.03423664861403
  endloop
endfacet
facet normal 1.0 -4.665481865083759e-25 -6.418797453162786e-12
  outer loop
    vertex 437.9053139181965 176.65708676056997 32.03423664861115
    vertex 437.9053139179077 158.65708676057 -12.965763351385927
    vertex 437.9053139179077 176.65708676056997 -12.965763351388816
  endloop
endfacet
facet normal -1.0 -0.0 6.418797453162786e-12
  outer loop
    vertex 445.1853139106508 177.12269876057 -12.965763351431747
    vertex 445.1853139109396 176.92269876056997 32.03423664856822
    vertex 445.1853139109396 177.12269876057 32.03423664856822
  endloop
endfacet
facet normal -1.0 -0.0 6.418797453162786e-12
  outer loop
    vertex 445.1853139109396 176.92269876056997 32.03423664856822
    vertex 445.1853139106508 177.12269876057 -12.965763351431747
    vertex 445.1853139106508 176.92269876056997 -12.965763351431747
  endloop
endfacet
facet normal -1.0 -0.0 6.418797453162786e-12
  outer loop
    vertex 453.90217691790775 177.69641476056998 -12.965763351487768
    vertex 453.9021769181965 157.69641476056998 32.03423664851219
    vertex 453.9021769181965 177.69641476056998 32.03423664851219
  endloop
endfacet
facet normal -1.0 -0.0 6.418797453162786e-12
  outer loop
    vertex 453.9021769181965 157.69641476056998 32.03423664851219
    vertex 453.90217691790775 177.69641476056998 -12.965763351487768
    vertex 453.90217691790775 157.69641476056998 -12.965763351487768
  endloop
endfacet
facet normal 1.0 0.0 -6.418797453162786e-12
  outer loop
    vertex 447.4352349179077 176.19641476056995 -12.965763351446196
    vertex 447.43523491819656 176.69641476056998 32.034236648553765
    vertex 447.43523491819656 176.19641476056995 32.034236648553765
  endloop
endfacet
facet normal 1.0 0.0 -6.418797453162786e-12
  outer loop
    vertex 447.43523491819656 176.69641476056998 32.034236648553765
    vertex 447.4352349179077 176.19641476056995 -12.965763351446196
    vertex 447.4352349179077 176.69641476056998 -12.965763351446196
  endloop
endfacet
facet normal 0.9999999988660001 -4.762352347460101e-05 -6.4187974458838695e-12
  outer loop
    vertex 443.18530438594604 176.92269876056997 -12.96576335141852
    vertex 443.1853139109396 177.12269876057 32.03423664858099
    vertex 443.1853043862349 176.92269876056997 32.03423664858144
  endloop
endfacet
facet normal 0.9999999988660001 -4.762352347460101e-05 -6.4187974458838695e-12
  outer loop
    vertex 443.1853139109396 177.12269876057 32.03423664858099
    vertex 443.18530438594604 176.92269876056997 -12.96576335141852
    vertex 443.1853139106508 177.12269876057 -12.965763351418971
  endloop
endfacet
facet normal -1.0 -1.5746001294657716e-23 6.418797453162786e-12
  outer loop
    vertex 449.4352349179077 176.69641476056998 -12.96576335145915
    vertex 449.43523491819656 176.19641476056995 32.034236648538105
    vertex 449.43523491819656 176.69641476056998 32.03423664854081
  endloop
endfacet
facet normal -1.0 -1.5746001294657716e-23 6.418797453162786e-12
  outer loop
    vertex 449.43523491819656 176.19641476056995 32.034236648538105
    vertex 449.4352349179077 176.69641476056998 -12.96576335145915
    vertex 449.4352349179077 176.19641476056995 -12.965763351461858
  endloop
endfacet
facet normal 0.0 1.0 0.0
  outer loop
    vertex 436.9053139181965 178.69641476056998 32.034236648621274
    vertex 454.9021769179011 178.69641476056998 -13.965763499854889
    vertex 436.90531391790114 178.69641476056998 -13.965763499739376
  endloop
endfacet
facet normal 0.0 1.0 0.0
  outer loop
    vertex 454.9021769179011 178.69641476056998 -13.965763499854889
    vertex 436.9053139181965 178.69641476056998 32.034236648621274
    vertex 454.9021769181965 178.69641476056998 32.03423664850585
  endloop
endfacet
facet normal -6.4264371873897905e-12 0.0 -1.0
  outer loop
    vertex 436.90531391790114 156.69641476056998 -13.965763499739376
    vertex 441.0780155927334 163.44147876659403 -13.965763351394042
    vertex 454.9021769179011 156.69641476056998 -13.965763499854889
  endloop
endfacet
facet normal -6.4264371873897905e-12 0.0 -1.0
  outer loop
    vertex 441.0780155927334 163.44147876659403 -13.965763351394042
    vertex 436.90531391790114 156.69641476056998 -13.965763499739376
    vertex 439.7350671696303 164.94147809712445 -13.965763351385243
  endloop
endfacet
facet normal -6.4264371873897905e-12 0.0 -1.0
  outer loop
    vertex 439.7350671696303 164.94147809712445 -13.965763351385243
    vertex 436.90531391790114 156.69641476056998 -13.965763499739376
    vertex 436.90531391790114 178.69641476056998 -13.965763499739376
  endloop
endfacet
facet normal -6.4264371873897905e-12 0.0 -1.0
  outer loop
    vertex 439.7350671696303 164.94147809712445 -13.965763351385243
    vertex 436.90531391790114 178.69641476056998 -13.965763499739376
    vertex 439.7350671696303 170.44147876655722 -13.965763351385243
  endloop
endfacet
facet normal -6.4264371873897905e-12 0.0 -1.0
  outer loop
    vertex 439.7350671696303 170.44147876655722 -13.965763351385243
    vertex 436.90531391790114 178.69641476056998 -13.965763499739376
    vertex 441.0780155927334 171.94147876655725 -13.965763351394042
  endloop
endfacet
facet normal -6.4264371873897905e-12 0.0 -1.0
  outer loop
    vertex 441.0780155927334 171.94147876655725 -13.965763351394042
    vertex 436.90531391790114 178.69641476056998 -13.965763499739376
    vertex 443.185067162692 171.94147876655725 -13.96576335140756
  endloop
endfacet
facet normal -6.4264371873897905e-12 0.0 -1.0
  outer loop
    vertex 454.9021769179011 156.69641476056998 -13.965763499854889
    vertex 443.185067162692 163.44147876659403 -13.96576335140756
    vertex 454.9021769179011 178.69641476056998 -13.965763499854889
  endloop
endfacet
facet normal -6.4264371873897905e-12 0.0 -1.0
  outer loop
    vertex 443.185067162692 163.44147876659403 -13.96576335140756
    vertex 454.9021769179011 156.69641476056998 -13.965763499854889
    vertex 441.0780155927334 163.44147876659403 -13.965763351394042
  endloop
endfacet
facet normal -6.4264371873897905e-12 0.0 -1.0
  outer loop
    vertex 454.9021769179011 178.69641476056998 -13.965763499854889
    vertex 443.185067162692 163.44147876659403 -13.96576335140756
    vertex 443.185067162692 171.94147876655725 -13.96576335140756
  endloop
endfacet
facet normal -6.4264371873897905e-12 0.0 -1.0
  outer loop
    vertex 454.9021769179011 178.69641476056998 -13.965763499854889
    vertex 443.185067162692 171.94147876655725 -13.96576335140756
    vertex 436.90531391790114 178.69641476056998 -13.965763499739376
  endloop
endfacet
facet normal 0.0 -1.0 0.0
  outer loop
    vertex 454.9021769179011 156.69641476056998 -13.965763499854889
    vertex 436.9053139181965 156.69641476056998 32.034236648621274
    vertex 436.90531391790114 156.69641476056998 -13.965763499739376
  endloop
endfacet
facet normal 0.0 -1.0 0.0
  outer loop
    vertex 436.9053139181965 156.69641476056998 32.034236648621274
    vertex 454.9021769179011 156.69641476056998 -13.965763499854889
    vertex 454.9021769181965 156.69641476056998 32.03423664850585
  endloop
endfacet
facet normal 1.0 0.0 -6.4264371873897905e-12
  outer loop
    vertex 454.9021769179011 156.69641476056998 -13.965763499854889
    vertex 454.9021769181965 178.69641476056998 32.03423664850585
    vertex 454.9021769181965 156.69641476056998 32.03423664850585
  endloop
endfacet
facet normal 1.0 0.0 -6.4264371873897905e-12
  outer loop
    vertex 454.9021769181965 178.69641476056998 32.03423664850585
    vertex 454.9021769179011 156.69641476056998 -13.965763499854889
    vertex 454.9021769179011 178.69641476056998 -13.965763499854889
  endloop
endfacet
facet normal -1.0 0.0 6.4264371873897905e-12
  outer loop
    vertex 436.90531391790114 178.69641476056998 -13.965763499739376
    vertex 436.9053139181965 156.69641476056998 32.034236648621274
    vertex 436.9053139181965 178.69641476056998 32.034236648621274
  endloop
endfacet
facet normal -1.0 0.0 6.4264371873897905e-12
  outer loop
    vertex 436.9053139181965 156.69641476056998 32.034236648621274
    vertex 436.90531391790114 178.69641476056998 -13.965763499739376
    vertex 436.90531391790114 156.69641476056998 -13.965763499739376
  endloop
endfacet
facet normal 0.0 1.0 0.0
  outer loop
    vertex 441.0780155927399 163.44147876659403 -12.965763351393727
    vertex 443.185067162692 163.44147876659403 -13.96576335140756
    vertex 441.0780155927334 163.44147876659403 -13.965763351394042
  endloop
endfacet
facet normal 0.0 1.0 0.0
  outer loop
    vertex 443.185067162692 163.44147876659403 -13.96576335140756
    vertex 441.0780155927399 163.44147876659403 -12.965763351393727
    vertex 443.1850671626985 163.44147876659403 -12.965763351407247
  endloop
endfacet
facet normal -1.0 0.0 6.4884764500055716e-12
  outer loop
    vertex 443.185067162692 171.94147876655725 -13.96576335140756
    vertex 443.1850671626985 163.44147876659403 -12.965763351407247
    vertex 443.1850671626985 171.94147876655725 -12.965763351407247
  endloop
endfacet
facet normal -1.0 0.0 6.4884764500055716e-12
  outer loop
    vertex 443.1850671626985 163.44147876659403 -12.965763351407247
    vertex 443.185067162692 171.94147876655725 -13.96576335140756
    vertex 443.185067162692 163.44147876659403 -13.96576335140756
  endloop
endfacet
facet normal 0.7450331717658539 -0.6670274154549509 -4.834328022806318e-12
  outer loop
    vertex 439.7350671696303 170.44147876655722 -13.965763351385243
    vertex 441.0780155927399 171.94147876655725 -12.965763351393727
    vertex 439.73506716963686 170.44147876655722 -12.965763351384929
  endloop
endfacet
facet normal 0.7450331717658539 -0.6670274154549509 -4.834328022806318e-12
  outer loop
    vertex 441.0780155927399 171.94147876655725 -12.965763351393727
    vertex 439.7350671696303 170.44147876655722 -13.965763351385243
    vertex 441.0780155927334 171.94147876655725 -13.965763351394042
  endloop
endfacet
facet normal 0.7450330238200202 0.6670275807023254 -4.83446083801339e-12
  outer loop
    vertex 441.0780155927399 163.44147876659403 -12.965763351393727
    vertex 439.7350671696303 164.94147809712445 -13.965763351385243
    vertex 439.73506716963686 164.94147809712445 -12.965763351384929
  endloop
endfacet
facet normal 0.7450330238200202 0.6670275807023254 -4.83446083801339e-12
  outer loop
    vertex 439.7350671696303 164.94147809712445 -13.965763351385243
    vertex 441.0780155927399 163.44147876659403 -12.965763351393727
    vertex 441.0780155927334 163.44147876659403 -13.965763351394042
  endloop
endfacet
facet normal 0.0 -1.0 0.0
  outer loop
    vertex 443.185067162692 171.94147876655725 -13.96576335140756
    vertex 441.0780155927399 171.94147876655725 -12.965763351393727
    vertex 441.0780155927334 171.94147876655725 -13.965763351394042
  endloop
endfacet
facet normal 0.0 -1.0 0.0
  outer loop
    vertex 441.0780155927399 171.94147876655725 -12.965763351393727
    vertex 443.185067162692 171.94147876655725 -13.96576335140756
    vertex 443.1850671626985 171.94147876655725 -12.965763351407247
  endloop
endfacet
facet normal 1.0 1.6824508354404015e-29 -6.474398064875626e-12
  outer loop
    vertex 439.7350671696303 164.94147809712445 -13.965763351385243
    vertex 439.73506716963686 170.44147876655722 -12.965763351384929
    vertex 439.73506716963686 164.94147809712445 -12.965763351384929
  endloop
endfacet
facet normal 1.0 1.6824508354404015e-29 -6.474398064875626e-12
  outer loop
    vertex 439.73506716963686 170.44147876655722 -12.965763351384929
    vertex 439.7350671696303 164.94147809712445 -13.965763351385243
    vertex 439.7350671696303 170.44147876655722 -13.965763351385243
  endloop
endfacet
facet normal 6.651511988377724e-12 1.0707080582097112e-13 1.0
  outer loop
    vertex 453.90217691790775 177.69641476056998 -12.965763351487768
    vertex 451.40217691790764 157.69641476056998 -12.965763351471644
    vertex 453.90217691790775 157.69641476056998 -12.965763351487768
  endloop
endfacet
facet normal 6.651511988377724e-12 1.0707080582097112e-13 1.0
  outer loop
    vertex 451.40217691790764 157.69641476056998 -12.965763351471644
    vertex 453.90217691790775 177.69641476056998 -12.965763351487768
    vertex 451.40217691790764 159.19641476056998 -12.965763351467944
  endloop
endfacet
facet normal 6.651511988377724e-12 1.0707080582097112e-13 1.0
  outer loop
    vertex 451.40217691790764 159.19641476056998 -12.965763351467944
    vertex 453.90217691790775 177.69641476056998 -12.965763351487768
    vertex 449.4352349179077 159.19641476056998 -12.965763351459241
  endloop
endfacet
facet normal 6.651511988377724e-12 1.0707080582097112e-13 1.0
  outer loop
    vertex 449.4352349179077 159.19641476056998 -12.965763351459241
    vertex 453.90217691790775 177.69641476056998 -12.965763351487768
    vertex 447.4352349179077 159.19641476056998 -12.965763351446196
  endloop
endfacet
facet normal 6.651511988377724e-12 1.0707080582097112e-13 1.0
  outer loop
    vertex 447.4352349179077 159.19641476056998 -12.965763351446196
    vertex 453.90217691790775 177.69641476056998 -12.965763351487768
    vertex 446.1853139106508 159.19641476056998 -12.965763351439985
  endloop
endfacet
facet normal 6.651511988377724e-12 1.0707080582097112e-13 1.0
  outer loop
    vertex 446.1853139106508 159.19641476056998 -12.965763351439985
    vertex 453.90217691790775 177.69641476056998 -12.965763351487768
    vertex 446.1853139106508 162.6126987514676 -12.965763351432406
  endloop
endfacet
facet normal 6.651511988377724e-12 1.0707080582097112e-13 1.0
  outer loop
    vertex 446.1853139106508 162.6126987514676 -12.965763351432406
    vertex 453.90217691790775 177.69641476056998 -12.965763351487768
    vertex 445.1853139106508 162.6126987514676 -12.965763351431747
  endloop
endfacet
facet normal 6.651511988377724e-12 1.0707080582097112e-13 1.0
  outer loop
    vertex 445.1853139106508 162.6126987514676 -12.965763351431747
    vertex 453.90217691790775 177.69641476056998 -12.965763351487768
    vertex 443.18517898575595 162.6126987514676 -12.965763351412662
  endloop
endfacet
facet normal 6.651511988377724e-12 1.0707080582097112e-13 1.0
  outer loop
    vertex 443.18517898575595 162.6126987514676 -12.965763351412662
    vertex 453.90217691790775 177.69641476056998 -12.965763351487768
    vertex 443.1850671626985 163.44147876659403 -12.965763351407247
  endloop
endfacet
facet normal 6.651511988377724e-12 1.0707080582097112e-13 1.0
  outer loop
    vertex 443.18517898575595 162.6126987514676 -12.965763351412662
    vertex 443.1850671626985 163.44147876659403 -12.965763351407247
    vertex 442.1853043859461 162.6126987514676 -12.96576335141191
  endloop
endfacet
facet normal 6.651511988377724e-12 1.0707080582097112e-13 1.0
  outer loop
    vertex 443.1850671626985 163.44147876659403 -12.965763351407247
    vertex 453.90217691790775 177.69641476056998 -12.965763351487768
    vertex 451.40217691790764 176.19641476056995 -12.965763351468665
  endloop
endfacet
facet normal 6.651511988377724e-12 1.0707080582097112e-13 1.0
  outer loop
    vertex 443.1850671626985 163.44147876659403 -12.965763351407247
    vertex 451.40217691790764 176.19641476056995 -12.965763351468665
    vertex 443.1850671626985 171.94147876655725 -12.965763351407247
  endloop
endfacet
facet normal 6.651511988377724e-12 1.0707080582097112e-13 1.0
  outer loop
    vertex 443.1850671626985 171.94147876655725 -12.965763351407247
    vertex 451.40217691790764 176.19641476056995 -12.965763351468665
    vertex 441.0780155927399 171.94147876655725 -12.965763351393727
  endloop
endfacet
facet normal 6.651511988377724e-12 1.0707080582097112e-13 1.0
  outer loop
    vertex 451.40217691790764 176.19641476056995 -12.965763351468665
    vertex 453.90217691790775 177.69641476056998 -12.965763351487768
    vertex 451.40217691790764 177.69641476056998 -12.965763351471644
  endloop
endfacet
facet normal 6.651511988377724e-12 1.0707080582097112e-13 1.0
  outer loop
    vertex 449.4352349179077 176.69641476056998 -12.96576335145915
    vertex 447.4352349179077 176.19641476056995 -12.965763351446196
    vertex 449.4352349179077 176.19641476056995 -12.965763351461858
  endloop
endfacet
facet normal 6.651511988377724e-12 1.0707080582097112e-13 1.0
  outer loop
    vertex 447.4352349179077 176.19641476056995 -12.965763351446196
    vertex 449.4352349179077 176.69641476056998 -12.96576335145915
    vertex 447.4352349179077 176.69641476056998 -12.965763351446196
  endloop
endfacet
facet normal 6.651511988377724e-12 1.0707080582097112e-13 1.0
  outer loop
    vertex 445.1853139106508 177.12269876057 -12.965763351431747
    vertex 443.18530438594604 176.92269876056997 -12.96576335141852
    vertex 445.1853139106508 176.92269876056997 -12.965763351431747
  endloop
endfacet
facet normal 6.651511988377724e-12 1.0707080582097112e-13 1.0
  outer loop
    vertex 443.18530438594604 176.92269876056997 -12.96576335141852
    vertex 445.1853139106508 177.12269876057 -12.965763351431747
    vertex 443.1853139106508 177.12269876057 -12.965763351418971
  endloop
endfacet
facet normal 6.651511988377724e-12 1.0707080582097112e-13 1.0
  outer loop
    vertex 446.4352349179077 176.92269876056997 -12.965763351445633
    vertex 441.20531391790774 176.65708676056997 -12.965763351400467
    vertex 446.4352349179077 176.19641476056995 -12.965763351445633
  endloop
endfacet
facet normal 6.651511988377724e-12 1.0707080582097112e-13 1.0
  outer loop
    vertex 441.20531391790774 176.65708676056997 -12.965763351400467
    vertex 446.4352349179077 176.92269876056997 -12.965763351445633
    vertex 442.1853043859461 176.92269876056997 -12.965763351417776
  endloop
endfacet
facet normal 6.651511988377724e-12 1.0707080582097112e-13 1.0
  outer loop
    vertex 441.20531391790774 176.65708676056997 -12.965763351400467
    vertex 442.1853043859461 176.92269876056997 -12.965763351417776
    vertex 441.20531391790774 177.69641476056998 -12.965763351400467
  endloop
endfacet
facet normal 6.651511988377724e-12 1.0707080582097112e-13 1.0
  outer loop
    vertex 442.1853043859461 176.92269876056997 -12.965763351417776
    vertex 446.4352349179077 176.92269876056997 -12.965763351445633
    vertex 445.1853139106508 176.92269876056997 -12.965763351431747
  endloop
endfacet
facet normal 6.651511988377724e-12 1.0707080582097112e-13 1.0
  outer loop
    vertex 442.1853043859461 176.92269876056997 -12.965763351417776
    vertex 445.1853139106508 176.92269876056997 -12.965763351431747
    vertex 443.18530438594604 176.92269876056997 -12.96576335141852
  endloop
endfacet
facet normal 6.651511988377724e-12 1.0707080582097112e-13 1.0
  outer loop
    vertex 441.20531391790774 177.69641476056998 -12.965763351400467
    vertex 442.1853043859461 176.92269876056997 -12.965763351417776
    vertex 442.1853043859461 177.69641476056998 -12.965763351417776
  endloop
endfacet
facet normal 6.651511988377724e-12 1.0707080582097112e-13 1.0
  outer loop
    vertex 440.2053139179077 176.85708676056998 -12.965763351399723
    vertex 439.20531391790763 176.65708676056997 -12.965763351393377
    vertex 440.2053139179077 176.65708676056997 -12.965763351399723
  endloop
endfacet
facet normal 6.651511988377724e-12 1.0707080582097112e-13 1.0
  outer loop
    vertex 439.20531391790763 176.65708676056997 -12.965763351393377
    vertex 440.2053139179077 176.85708676056998 -12.965763351399723
    vertex 439.20531391790763 176.85708676056998 -12.965763351393377
  endloop
endfacet
facet normal 6.651511988377724e-12 1.0707080582097112e-13 1.0
  outer loop
    vertex 442.1853043859461 162.6126987514676 -12.96576335141191
    vertex 441.20531391790774 157.69641476056998 -12.965763351403265
    vertex 442.1853043859461 157.69641476056998 -12.965763351412182
  endloop
endfacet
facet normal 6.651511988377724e-12 1.0707080582097112e-13 1.0
  outer loop
    vertex 441.20531391790774 157.69641476056998 -12.965763351403265
    vertex 442.1853043859461 162.6126987514676 -12.96576335141191
    vertex 441.20531391790774 158.65708676057 -12.965763351400467
  endloop
endfacet
facet normal 6.651511988377724e-12 1.0707080582097112e-13 1.0
  outer loop
    vertex 441.20531391790774 158.65708676057 -12.965763351400467
    vertex 442.1853043859461 162.6126987514676 -12.96576335141191
    vertex 440.2053139179077 158.65708676057 -12.965763351399723
  endloop
endfacet
facet normal 6.651511988377724e-12 1.0707080582097112e-13 1.0
  outer loop
    vertex 440.2053139179077 158.65708676057 -12.965763351399723
    vertex 442.1853043859461 162.6126987514676 -12.96576335141191
    vertex 439.20531391790763 158.65708676057 -12.965763351393377
  endloop
endfacet
facet normal 6.651511988377724e-12 1.0707080582097112e-13 1.0
  outer loop
    vertex 439.20531391790763 158.65708676057 -12.965763351393377
    vertex 442.1853043859461 162.6126987514676 -12.96576335141191
    vertex 437.9053139179077 158.65708676057 -12.965763351385927
  endloop
endfacet
facet normal 6.651511988377724e-12 1.0707080582097112e-13 1.0
  outer loop
    vertex 437.9053139179077 158.65708676057 -12.965763351385927
    vertex 442.1853043859461 162.6126987514676 -12.96576335141191
    vertex 441.0780155927399 163.44147876659403 -12.965763351393727
  endloop
endfacet
facet normal 6.651511988377724e-12 1.0707080582097112e-13 1.0
  outer loop
    vertex 437.9053139179077 158.65708676057 -12.965763351385927
    vertex 441.0780155927399 163.44147876659403 -12.965763351393727
    vertex 439.73506716963686 164.94147809712445 -12.965763351384929
  endloop
endfacet
facet normal 6.651511988377724e-12 1.0707080582097112e-13 1.0
  outer loop
    vertex 437.9053139179077 158.65708676057 -12.965763351385927
    vertex 439.73506716963686 164.94147809712445 -12.965763351384929
    vertex 437.9053139179077 176.65708676056997 -12.965763351388816
  endloop
endfacet
facet normal 6.651511988377724e-12 1.0707080582097112e-13 1.0
  outer loop
    vertex 441.0780155927399 163.44147876659403 -12.965763351393727
    vertex 442.1853043859461 162.6126987514676 -12.96576335141191
    vertex 443.1850671626985 163.44147876659403 -12.965763351407247
  endloop
endfacet
facet normal 6.651511988377724e-12 1.0707080582097112e-13 1.0
  outer loop
    vertex 437.9053139179077 176.65708676056997 -12.965763351388816
    vertex 439.73506716963686 164.94147809712445 -12.965763351384929
    vertex 439.73506716963686 170.44147876655722 -12.965763351384929
  endloop
endfacet
facet normal 6.651511988377724e-12 1.0707080582097112e-13 1.0
  outer loop
    vertex 437.9053139179077 176.65708676056997 -12.965763351388816
    vertex 439.73506716963686 170.44147876655722 -12.965763351384929
    vertex 441.0780155927399 171.94147876655725 -12.965763351393727
  endloop
endfacet
facet normal 6.651511988377724e-12 1.0707080582097112e-13 1.0
  outer loop
    vertex 437.9053139179077 176.65708676056997 -12.965763351388816
    vertex 441.0780155927399 171.94147876655725 -12.965763351393727
    vertex 446.4352349179077 176.19641476056995 -12.965763351445633
  endloop
endfacet
facet normal 6.651511988377724e-12 1.0707080582097112e-13 1.0
  outer loop
    vertex 446.4352349179077 176.19641476056995 -12.965763351445633
    vertex 441.0780155927399 171.94147876655725 -12.965763351393727
    vertex 451.40217691790764 176.19641476056995 -12.965763351468665
  endloop
endfacet
facet normal 6.651511988377724e-12 1.0707080582097112e-13 1.0
  outer loop
    vertex 446.4352349179077 176.19641476056995 -12.965763351445633
    vertex 451.40217691790764 176.19641476056995 -12.965763351468665
    vertex 449.4352349179077 176.19641476056995 -12.965763351461858
  endloop
endfacet
facet normal 6.651511988377724e-12 1.0707080582097112e-13 1.0
  outer loop
    vertex 446.4352349179077 176.19641476056995 -12.965763351445633
    vertex 449.4352349179077 176.19641476056995 -12.965763351461858
    vertex 447.4352349179077 176.19641476056995 -12.965763351446196
  endloop
endfacet
facet normal 6.651511988377724e-12 1.0707080582097112e-13 1.0
  outer loop
    vertex 437.9053139179077 176.65708676056997 -12.965763351388816
    vertex 446.4352349179077 176.19641476056995 -12.965763351445633
    vertex 441.20531391790774 176.65708676056997 -12.965763351400467
  endloop
endfacet
facet normal 6.651511988377724e-12 1.0707080582097112e-13 1.0
  outer loop
    vertex 437.9053139179077 176.65708676056997 -12.965763351388816
    vertex 441.20531391790774 176.65708676056997 -12.965763351400467
    vertex 440.2053139179077 176.65708676056997 -12.965763351399723
  endloop
endfacet
facet normal 6.651511988377724e-12 1.0707080582097112e-13 1.0
  outer loop
    vertex 437.9053139179077 176.65708676056997 -12.965763351388816
    vertex 440.2053139179077 176.65708676056997 -12.965763351399723
    vertex 439.20531391790763 176.65708676056997 -12.965763351393377
  endloop
endfacet
facet normal 6.651511988377724e-12 1.0707080582097112e-13 1.0
  outer loop
    vertex 445.1853139106508 162.6126987514676 -12.965763351431747
    vertex 443.1853139106508 161.61269876057 -12.965763351418971
    vertex 445.1853139106508 161.61269876057 -12.965763351431747
  endloop
endfacet
facet normal 6.651511988377724e-12 1.0707080582097112e-13 1.0
  outer loop
    vertex 443.1853139106508 161.61269876057 -12.965763351418971
    vertex 445.1853139106508 162.6126987514676 -12.965763351431747
    vertex 443.1852464482033 162.1126987560188 -12.96576335141582
  endloop
endfacet
facet normal 6.651511988377724e-12 1.0707080582097112e-13 1.0
  outer loop
    vertex 443.1852464482033 162.1126987560188 -12.96576335141582
    vertex 445.1853139106508 162.6126987514676 -12.965763351431747
    vertex 443.18517898575595 162.6126987514676 -12.965763351412662
  endloop
endfacet
facet normal 6.651511988377724e-12 1.0707080582097112e-13 1.0
  outer loop
    vertex 449.4352349179077 159.19641476056998 -12.965763351459241
    vertex 447.4352349179077 158.69641476056998 -12.965763351446196
    vertex 449.4352349179077 158.69641476056998 -12.96576335145915
  endloop
endfacet
facet normal 6.651511988377724e-12 1.0707080582097112e-13 1.0
  outer loop
    vertex 447.4352349179077 158.69641476056998 -12.965763351446196
    vertex 449.4352349179077 159.19641476056998 -12.965763351459241
    vertex 447.4352349179077 159.19641476056998 -12.965763351446196
  endloop
endfacet
facet normal 6.651511988377724e-12 1.0707080582097112e-13 1.0
  outer loop
    vertex 440.2053139179077 158.65708676057 -12.965763351399723
    vertex 439.20531391790763 158.45708676056998 -12.965763351393377
    vertex 440.2053139179077 158.45708676056998 -12.965763351399723
  endloop
endfacet
facet normal 6.651511988377724e-12 1.0707080582097112e-13 1.0
  outer loop
    vertex 439.20531391790763 158.45708676056998 -12.965763351393377
    vertex 440.2053139179077 158.65708676057 -12.965763351399723
    vertex 439.20531391790763 158.65708676057 -12.965763351393377
  endloop
endfacet
endsolid model
